G75*
G70*
%OFA0B0*%
%FSLAX24Y24*%
%IPPOS*%
%LPD*%
%AMOC8*
5,1,8,0,0,1.08239X$1,22.5*
%
%ADD10C,0.0000*%
%ADD11C,0.0160*%
%ADD12R,0.0390X0.0120*%
%ADD13R,0.0197X0.0394*%
%ADD14R,0.0591X0.0512*%
%ADD15C,0.0394*%
%ADD16OC8,0.0594*%
%ADD17R,0.0630X0.0512*%
%ADD18R,0.1063X0.0630*%
%ADD19R,0.0472X0.0472*%
%ADD20C,0.0560*%
%ADD21C,0.0594*%
%ADD22C,0.0240*%
%ADD23C,0.0120*%
D10*
X000430Y000430D02*
X000430Y031926D01*
X039800Y031926D01*
X039800Y000430D01*
X000430Y000430D01*
X000523Y000680D02*
X000525Y000705D01*
X000531Y000729D01*
X000540Y000751D01*
X000553Y000772D01*
X000569Y000791D01*
X000588Y000807D01*
X000609Y000820D01*
X000631Y000829D01*
X000655Y000835D01*
X000680Y000837D01*
X000705Y000835D01*
X000729Y000829D01*
X000751Y000820D01*
X000772Y000807D01*
X000791Y000791D01*
X000807Y000772D01*
X000820Y000751D01*
X000829Y000729D01*
X000835Y000705D01*
X000837Y000680D01*
X000835Y000655D01*
X000829Y000631D01*
X000820Y000609D01*
X000807Y000588D01*
X000791Y000569D01*
X000772Y000553D01*
X000751Y000540D01*
X000729Y000531D01*
X000705Y000525D01*
X000680Y000523D01*
X000655Y000525D01*
X000631Y000531D01*
X000609Y000540D01*
X000588Y000553D01*
X000569Y000569D01*
X000553Y000588D01*
X000540Y000609D01*
X000531Y000631D01*
X000525Y000655D01*
X000523Y000680D01*
X000523Y012180D02*
X000525Y012205D01*
X000531Y012229D01*
X000540Y012251D01*
X000553Y012272D01*
X000569Y012291D01*
X000588Y012307D01*
X000609Y012320D01*
X000631Y012329D01*
X000655Y012335D01*
X000680Y012337D01*
X000705Y012335D01*
X000729Y012329D01*
X000751Y012320D01*
X000772Y012307D01*
X000791Y012291D01*
X000807Y012272D01*
X000820Y012251D01*
X000829Y012229D01*
X000835Y012205D01*
X000837Y012180D01*
X000835Y012155D01*
X000829Y012131D01*
X000820Y012109D01*
X000807Y012088D01*
X000791Y012069D01*
X000772Y012053D01*
X000751Y012040D01*
X000729Y012031D01*
X000705Y012025D01*
X000680Y012023D01*
X000655Y012025D01*
X000631Y012031D01*
X000609Y012040D01*
X000588Y012053D01*
X000569Y012069D01*
X000553Y012088D01*
X000540Y012109D01*
X000531Y012131D01*
X000525Y012155D01*
X000523Y012180D01*
X018523Y012180D02*
X018525Y012205D01*
X018531Y012229D01*
X018540Y012251D01*
X018553Y012272D01*
X018569Y012291D01*
X018588Y012307D01*
X018609Y012320D01*
X018631Y012329D01*
X018655Y012335D01*
X018680Y012337D01*
X018705Y012335D01*
X018729Y012329D01*
X018751Y012320D01*
X018772Y012307D01*
X018791Y012291D01*
X018807Y012272D01*
X018820Y012251D01*
X018829Y012229D01*
X018835Y012205D01*
X018837Y012180D01*
X018835Y012155D01*
X018829Y012131D01*
X018820Y012109D01*
X018807Y012088D01*
X018791Y012069D01*
X018772Y012053D01*
X018751Y012040D01*
X018729Y012031D01*
X018705Y012025D01*
X018680Y012023D01*
X018655Y012025D01*
X018631Y012031D01*
X018609Y012040D01*
X018588Y012053D01*
X018569Y012069D01*
X018553Y012088D01*
X018540Y012109D01*
X018531Y012131D01*
X018525Y012155D01*
X018523Y012180D01*
X018523Y000680D02*
X018525Y000705D01*
X018531Y000729D01*
X018540Y000751D01*
X018553Y000772D01*
X018569Y000791D01*
X018588Y000807D01*
X018609Y000820D01*
X018631Y000829D01*
X018655Y000835D01*
X018680Y000837D01*
X018705Y000835D01*
X018729Y000829D01*
X018751Y000820D01*
X018772Y000807D01*
X018791Y000791D01*
X018807Y000772D01*
X018820Y000751D01*
X018829Y000729D01*
X018835Y000705D01*
X018837Y000680D01*
X018835Y000655D01*
X018829Y000631D01*
X018820Y000609D01*
X018807Y000588D01*
X018791Y000569D01*
X018772Y000553D01*
X018751Y000540D01*
X018729Y000531D01*
X018705Y000525D01*
X018680Y000523D01*
X018655Y000525D01*
X018631Y000531D01*
X018609Y000540D01*
X018588Y000553D01*
X018569Y000569D01*
X018553Y000588D01*
X018540Y000609D01*
X018531Y000631D01*
X018525Y000655D01*
X018523Y000680D01*
D11*
X019180Y000180D02*
X000180Y000180D01*
X000180Y012680D01*
X019180Y012680D01*
X019180Y000180D01*
X016430Y002930D02*
X015930Y002930D01*
X014930Y001930D01*
X014680Y001680D01*
X013680Y001680D01*
X013430Y001930D01*
X014430Y002430D02*
X015430Y003430D01*
X015930Y003930D01*
X016430Y003930D01*
X016430Y004930D02*
X015930Y004930D01*
X014430Y003430D01*
X014430Y004430D02*
X015930Y005930D01*
X016430Y005930D01*
X016430Y006930D02*
X015930Y006930D01*
X014680Y005680D01*
X014680Y006680D02*
X015930Y007930D01*
X016430Y007930D01*
X016430Y008930D02*
X015930Y008930D01*
X014430Y007430D01*
X014430Y008430D02*
X015930Y009930D01*
X016430Y009930D01*
X014430Y009430D02*
X012930Y007930D01*
X012930Y008056D02*
X012806Y008180D01*
X012680Y008180D01*
X011930Y007430D01*
X011930Y007180D01*
X011930Y005930D01*
X010930Y004930D01*
X010582Y004840D02*
X010579Y004837D01*
X010930Y005430D02*
X010930Y005680D01*
X010845Y006680D02*
X010930Y006765D01*
X011430Y007430D02*
X011930Y007930D01*
X011930Y008930D01*
X011930Y009930D01*
X011930Y010680D01*
X011930Y010430D02*
X011306Y011054D01*
X010930Y011054D01*
X010930Y011093D02*
X010930Y011180D01*
X010930Y011093D02*
X009430Y011093D01*
X009430Y010306D02*
X009430Y010267D01*
X009430Y010180D01*
X009430Y010267D02*
X009430Y010306D01*
X007930Y010306D01*
X008930Y009430D02*
X009056Y009304D01*
X009056Y008902D01*
X009430Y008902D02*
X009430Y008680D01*
X009680Y008430D01*
X010180Y008430D01*
X010430Y008680D01*
X010930Y008680D01*
X010930Y008180D02*
X010930Y008095D01*
X010930Y007930D01*
X010792Y007958D02*
X010930Y008095D01*
X009804Y008804D02*
X009804Y008902D01*
X009804Y009306D01*
X010930Y009680D02*
X010930Y010306D01*
X011930Y010267D02*
X011930Y010430D01*
X012430Y010930D01*
X013180Y010930D01*
X012930Y010430D02*
X012930Y010306D01*
X012930Y009680D01*
X012930Y010306D02*
X012930Y010430D01*
X011930Y010430D02*
X011930Y009930D01*
X014430Y010430D02*
X014430Y009430D01*
X009430Y007180D02*
X009430Y006765D01*
X009430Y007180D02*
X009180Y007430D01*
X009056Y007554D01*
X009056Y007804D01*
X009056Y007958D01*
X008584Y008430D02*
X008507Y008353D01*
X008584Y008430D01*
X008249Y008095D02*
X007930Y008095D01*
X007845Y008180D01*
X006680Y007930D02*
X006680Y006680D01*
X006180Y006680D01*
X006180Y006804D01*
X006180Y006930D01*
X006680Y006680D02*
X006680Y006180D01*
X007680Y005180D01*
X007680Y004930D01*
X008028Y004582D01*
X008281Y004582D01*
X008281Y004837D02*
X008180Y004837D01*
X008180Y004930D01*
X008180Y005079D02*
X008180Y005180D01*
X006930Y004930D02*
X005930Y004930D01*
X003430Y007430D01*
X002430Y007430D01*
X001930Y006930D01*
X002430Y006430D02*
X003430Y006430D01*
X005930Y003930D01*
X006180Y003930D01*
X006930Y003930D01*
X006930Y004430D02*
X006680Y004430D01*
X005930Y004430D01*
X003430Y006930D01*
X002930Y006930D01*
X002430Y006430D02*
X001930Y005930D01*
X002430Y005430D02*
X003430Y005430D01*
X005680Y003180D01*
X005930Y002930D01*
X006180Y002930D01*
X006430Y002930D01*
X006930Y002930D01*
X006930Y003430D02*
X006680Y003430D01*
X006180Y003430D01*
X005930Y003430D01*
X003430Y005930D01*
X002930Y005930D01*
X002430Y005430D02*
X001930Y004930D01*
X002430Y004430D02*
X003430Y004430D01*
X005930Y001930D01*
X006180Y001930D01*
X006930Y001930D01*
X006930Y002430D02*
X006680Y002430D01*
X006180Y002430D01*
X005930Y002430D01*
X003430Y004930D01*
X002930Y004930D01*
X002430Y004430D02*
X001930Y003930D01*
X001930Y002930D02*
X002930Y002930D01*
X002930Y003930D02*
X003430Y003930D01*
X005930Y001430D01*
X006430Y001430D01*
X006680Y001430D01*
X006930Y001430D01*
X006680Y007930D02*
X006430Y008180D01*
X006180Y008180D02*
X006180Y008056D01*
X006180Y008804D02*
X006180Y009180D01*
X006180Y009430D01*
X006180Y010129D01*
X006180Y009180D02*
X006180Y008930D01*
X004430Y010430D02*
X004430Y010680D01*
D12*
X008281Y004837D03*
X008281Y004582D03*
X008281Y004326D03*
X008281Y004070D03*
X008281Y003814D03*
X008281Y003558D03*
X008281Y003302D03*
X008281Y003046D03*
X008281Y002790D03*
X008281Y002534D03*
X008281Y002278D03*
X008281Y002023D03*
X010579Y002023D03*
X010579Y002278D03*
X010579Y002534D03*
X010579Y002790D03*
X010579Y003046D03*
X010579Y003302D03*
X010579Y003558D03*
X010579Y003814D03*
X010579Y004070D03*
X010579Y004326D03*
X010579Y004582D03*
X010579Y004837D03*
D13*
X009804Y007958D03*
X009056Y007958D03*
X009056Y008902D03*
X009430Y008902D03*
X009804Y008902D03*
D14*
X010930Y008765D03*
X010930Y008095D03*
X010930Y006765D03*
X010930Y006095D03*
X009430Y006095D03*
X009430Y006765D03*
X007930Y006765D03*
X007930Y006095D03*
X007930Y008095D03*
X007930Y008765D03*
D15*
X010930Y009680D03*
X011930Y010680D03*
X012930Y009680D03*
X014430Y008430D03*
X014430Y007430D03*
X014680Y006680D03*
X014680Y005680D03*
X014430Y004430D03*
X014430Y003430D03*
X014430Y002430D03*
X013430Y001930D03*
X006680Y001430D03*
X006180Y001930D03*
X006680Y002430D03*
X006180Y002930D03*
X006680Y003430D03*
X006180Y003930D03*
X006680Y004430D03*
X006180Y004930D03*
X004430Y010680D03*
X004430Y011430D03*
D16*
X002930Y006930D03*
X002930Y005930D03*
X002930Y004930D03*
X002930Y003930D03*
X002930Y002930D03*
X001930Y002930D03*
X001930Y003930D03*
X001930Y004930D03*
X001930Y005930D03*
X001930Y006930D03*
X016430Y006930D03*
X017430Y006930D03*
X017430Y005930D03*
X016430Y005930D03*
X016430Y004930D03*
X017430Y004930D03*
X017430Y003930D03*
X016430Y003930D03*
X016430Y002930D03*
X017430Y002930D03*
X017430Y007930D03*
X016430Y007930D03*
X016430Y008930D03*
X017430Y008930D03*
X017430Y009930D03*
X016430Y009930D03*
D17*
X012930Y010306D03*
X012930Y011054D03*
X010930Y011054D03*
X010930Y010306D03*
X012930Y008804D03*
X012930Y008056D03*
X007930Y010306D03*
X007930Y011054D03*
X006180Y008804D03*
X006180Y008056D03*
X006180Y006804D03*
X006180Y006056D03*
D18*
X006180Y010129D03*
X006180Y011231D03*
D19*
X009430Y011093D03*
X009430Y010267D03*
D20*
X014150Y010430D02*
X014710Y010430D01*
X014710Y011430D02*
X014150Y011430D01*
D21*
X002727Y011430D02*
X002133Y011430D01*
X002133Y010430D02*
X002727Y010430D01*
D22*
X002430Y010430D02*
X004430Y010430D01*
X005180Y010430D01*
X005430Y010180D01*
X006180Y010180D01*
X006180Y010129D01*
X006180Y009430D01*
X006180Y009180D01*
X006180Y008930D01*
X006180Y008804D02*
X006556Y008804D01*
X007180Y008180D01*
X007845Y008180D01*
X008249Y008095D02*
X008507Y008353D01*
X008584Y008430D02*
X008584Y009084D01*
X008930Y009430D01*
X009430Y009430D01*
X009680Y009430D01*
X009804Y009306D01*
X009804Y007958D02*
X010792Y007958D01*
X010930Y007930D02*
X011430Y007430D01*
X011430Y006180D01*
X010930Y005680D01*
X010930Y005430D02*
X010930Y006095D01*
X010930Y005430D02*
X010837Y005337D01*
X010582Y005082D01*
X010582Y004840D01*
X008180Y004930D02*
X008180Y005079D01*
X008180Y005180D02*
X007930Y005430D01*
X007930Y006095D01*
X007515Y006095D01*
X007180Y006430D01*
X007180Y008180D01*
D23*
X007296Y008460D02*
X006715Y009041D01*
X006655Y009066D01*
X006655Y009126D01*
X006561Y009220D01*
X006460Y009220D01*
X006460Y009654D01*
X006778Y009654D01*
X006871Y009748D01*
X006871Y010510D01*
X006778Y010604D01*
X005582Y010604D01*
X005492Y010514D01*
X005339Y010667D01*
X005236Y010710D01*
X004787Y010710D01*
X004787Y010751D01*
X004733Y010882D01*
X004632Y010983D01*
X004501Y011037D01*
X004359Y011037D01*
X004228Y010983D01*
X004127Y010882D01*
X004073Y010751D01*
X004073Y010710D01*
X003093Y010710D01*
X002986Y010817D01*
X002818Y010887D01*
X002042Y010887D01*
X001874Y010817D01*
X001746Y010689D01*
X001676Y010521D01*
X001676Y010339D01*
X001746Y010171D01*
X001874Y010043D01*
X002042Y009973D01*
X002818Y009973D01*
X002986Y010043D01*
X003093Y010150D01*
X005064Y010150D01*
X005271Y009943D01*
X005374Y009900D01*
X005489Y009900D01*
X005489Y009748D01*
X005582Y009654D01*
X005900Y009654D01*
X005900Y009220D01*
X005799Y009220D01*
X005705Y009126D01*
X005705Y008482D01*
X005757Y008430D01*
X005705Y008378D01*
X005705Y007734D01*
X005799Y007640D01*
X006440Y007640D01*
X006440Y007220D01*
X005799Y007220D01*
X005705Y007126D01*
X005705Y006482D01*
X005757Y006430D01*
X005737Y006410D01*
X005716Y006374D01*
X005705Y006333D01*
X005705Y006116D01*
X006120Y006116D01*
X006120Y005996D01*
X005705Y005996D01*
X005705Y005779D01*
X005716Y005738D01*
X005737Y005702D01*
X005767Y005672D01*
X005803Y005651D01*
X005844Y005640D01*
X006120Y005640D01*
X006120Y005996D01*
X006240Y005996D01*
X006240Y005640D01*
X006516Y005640D01*
X006557Y005651D01*
X006593Y005672D01*
X006623Y005702D01*
X006644Y005738D01*
X006655Y005779D01*
X006655Y005866D01*
X007440Y005081D01*
X007440Y004882D01*
X007477Y004794D01*
X007725Y004546D01*
X007625Y004546D01*
X007271Y004900D01*
X007153Y005018D01*
X007133Y005066D01*
X007066Y005133D01*
X006978Y005170D01*
X006445Y005170D01*
X006382Y005233D01*
X006251Y005287D01*
X006109Y005287D01*
X005978Y005233D01*
X005972Y005227D01*
X003566Y007633D01*
X003478Y007670D01*
X002382Y007670D01*
X002294Y007633D01*
X002227Y007566D01*
X002047Y007387D01*
X001741Y007387D01*
X001473Y007119D01*
X001473Y006741D01*
X001741Y006473D01*
X002119Y006473D01*
X002387Y006741D01*
X002387Y007047D01*
X002529Y007190D01*
X002544Y007190D01*
X002473Y007119D01*
X002473Y006741D01*
X002544Y006670D01*
X002382Y006670D01*
X002294Y006633D01*
X002227Y006566D01*
X002047Y006387D01*
X001741Y006387D01*
X001473Y006119D01*
X001473Y005741D01*
X001741Y005473D01*
X002119Y005473D01*
X002387Y005741D01*
X002387Y006047D01*
X002529Y006190D01*
X002544Y006190D01*
X002473Y006119D01*
X002473Y005741D01*
X002544Y005670D01*
X002382Y005670D01*
X002294Y005633D01*
X002047Y005387D01*
X001741Y005387D01*
X001473Y005119D01*
X001473Y004741D01*
X001741Y004473D01*
X002119Y004473D01*
X002387Y004741D01*
X002387Y005047D01*
X002529Y005190D01*
X002544Y005190D01*
X002473Y005119D01*
X002473Y004741D01*
X002544Y004670D01*
X002382Y004670D01*
X002294Y004633D01*
X002227Y004566D01*
X002047Y004387D01*
X001741Y004387D01*
X001473Y004119D01*
X001473Y003741D01*
X001741Y003473D01*
X002119Y003473D01*
X002387Y003741D01*
X002387Y004047D01*
X002529Y004190D01*
X002544Y004190D01*
X002473Y004119D01*
X002473Y003741D01*
X002741Y003473D01*
X003119Y003473D01*
X003333Y003687D01*
X005727Y001294D01*
X005794Y001227D01*
X005882Y001190D01*
X006415Y001190D01*
X006478Y001127D01*
X006609Y001073D01*
X006751Y001073D01*
X006882Y001127D01*
X006945Y001190D01*
X006978Y001190D01*
X007066Y001227D01*
X007133Y001294D01*
X007153Y001342D01*
X007930Y002119D01*
X007926Y002104D01*
X007926Y002023D01*
X008281Y002023D01*
X008281Y002023D01*
X007926Y002023D01*
X007926Y001941D01*
X007937Y001901D01*
X007958Y001864D01*
X007988Y001834D01*
X008025Y001813D01*
X008065Y001803D01*
X008281Y001803D01*
X008281Y002023D01*
X008636Y002023D01*
X008636Y002104D01*
X008625Y002144D01*
X008622Y002150D01*
X008625Y002157D01*
X008636Y002197D01*
X008636Y002278D01*
X008281Y002278D01*
X008281Y002278D01*
X008636Y002278D01*
X008636Y002359D01*
X008626Y002398D01*
X008636Y002408D01*
X008636Y002661D01*
X008635Y002662D01*
X008636Y002664D01*
X008636Y002917D01*
X008635Y002918D01*
X008636Y002920D01*
X008636Y003172D01*
X008635Y003174D01*
X008636Y003176D01*
X008636Y003428D01*
X008635Y003430D01*
X008636Y003432D01*
X008636Y003684D01*
X008635Y003686D01*
X008636Y003688D01*
X008636Y003940D01*
X008635Y003942D01*
X008636Y003943D01*
X008636Y004196D01*
X008635Y004198D01*
X008636Y004199D01*
X008636Y004452D01*
X008635Y004454D01*
X008636Y004455D01*
X008636Y004708D01*
X008635Y004710D01*
X008636Y004711D01*
X008636Y004964D01*
X008543Y005057D01*
X008460Y005057D01*
X008460Y005236D01*
X008417Y005339D01*
X008210Y005546D01*
X008210Y005679D01*
X008292Y005679D01*
X008385Y005773D01*
X008385Y006418D01*
X008368Y006435D01*
X008374Y006447D01*
X008385Y006488D01*
X008385Y006705D01*
X007990Y006705D01*
X007990Y006825D01*
X007870Y006825D01*
X007870Y007181D01*
X007614Y007181D01*
X007573Y007170D01*
X007536Y007149D01*
X007507Y007119D01*
X007486Y007082D01*
X007475Y007042D01*
X007475Y006825D01*
X007870Y006825D01*
X007870Y006705D01*
X007475Y006705D01*
X007475Y006531D01*
X007460Y006546D01*
X007460Y007900D01*
X007475Y007900D01*
X007475Y007773D01*
X007568Y007679D01*
X008292Y007679D01*
X008385Y007773D01*
X008385Y007849D01*
X008408Y007858D01*
X008742Y008193D01*
X008742Y008193D01*
X008821Y008271D01*
X008864Y008374D01*
X008864Y008573D01*
X008891Y008546D01*
X009221Y008546D01*
X009246Y008570D01*
X009270Y008556D01*
X009311Y008546D01*
X009430Y008546D01*
X009549Y008546D01*
X009590Y008556D01*
X009614Y008570D01*
X009639Y008546D01*
X009969Y008546D01*
X010062Y008639D01*
X010062Y009166D01*
X010053Y009175D01*
X010084Y009250D01*
X010084Y009362D01*
X010041Y009465D01*
X009839Y009667D01*
X009736Y009710D01*
X008874Y009710D01*
X008771Y009667D01*
X008693Y009589D01*
X008346Y009242D01*
X008311Y009156D01*
X008287Y009170D01*
X008246Y009181D01*
X007990Y009181D01*
X007990Y008825D01*
X007870Y008825D01*
X007870Y009181D01*
X007614Y009181D01*
X007573Y009170D01*
X007536Y009149D01*
X007507Y009119D01*
X007486Y009082D01*
X007475Y009042D01*
X007475Y008825D01*
X007870Y008825D01*
X007870Y008705D01*
X007475Y008705D01*
X007475Y008488D01*
X007268Y008488D01*
X007296Y008460D02*
X007482Y008460D01*
X007475Y008488D01*
X007475Y008607D02*
X007149Y008607D01*
X007031Y008725D02*
X007870Y008725D01*
X007870Y008844D02*
X007990Y008844D01*
X007990Y008962D02*
X007870Y008962D01*
X007870Y009081D02*
X007990Y009081D01*
X008328Y009199D02*
X006582Y009199D01*
X006655Y009081D02*
X007485Y009081D01*
X007475Y008962D02*
X006794Y008962D01*
X006912Y008844D02*
X007475Y008844D01*
X008422Y009318D02*
X006460Y009318D01*
X006460Y009436D02*
X008540Y009436D01*
X008659Y009555D02*
X006460Y009555D01*
X006797Y009673D02*
X008785Y009673D01*
X009034Y009964D02*
X009128Y009870D01*
X009732Y009870D01*
X009826Y009964D01*
X009826Y010569D01*
X009732Y010663D01*
X009128Y010663D01*
X009034Y010569D01*
X009034Y010546D01*
X008405Y010546D01*
X008405Y010628D01*
X008353Y010680D01*
X008373Y010700D01*
X008394Y010736D01*
X008405Y010777D01*
X008405Y010994D01*
X007990Y010994D01*
X007990Y011114D01*
X008405Y011114D01*
X008405Y011331D01*
X008394Y011372D01*
X008373Y011408D01*
X008343Y011438D01*
X008307Y011459D01*
X008266Y011470D01*
X007990Y011470D01*
X007990Y011114D01*
X007870Y011114D01*
X007870Y010994D01*
X007455Y010994D01*
X007455Y010777D01*
X007466Y010736D01*
X007487Y010700D01*
X007507Y010680D01*
X007455Y010628D01*
X007455Y009984D01*
X007549Y009890D01*
X008311Y009890D01*
X008405Y009984D01*
X008405Y010066D01*
X009034Y010066D01*
X009034Y009964D01*
X009034Y010029D02*
X008405Y010029D01*
X008331Y009910D02*
X009088Y009910D01*
X009772Y009910D02*
X010529Y009910D01*
X010549Y009890D02*
X010635Y009890D01*
X010627Y009882D01*
X010573Y009751D01*
X010573Y009609D01*
X010627Y009478D01*
X010728Y009377D01*
X010859Y009323D01*
X011001Y009323D01*
X011132Y009377D01*
X011233Y009478D01*
X011287Y009609D01*
X011287Y009751D01*
X011233Y009882D01*
X011225Y009890D01*
X011311Y009890D01*
X011405Y009984D01*
X011405Y010616D01*
X011690Y010331D01*
X011690Y008029D01*
X011458Y007798D01*
X011385Y007871D01*
X011385Y008418D01*
X011368Y008435D01*
X011374Y008447D01*
X011385Y008488D01*
X011690Y008488D01*
X011690Y008370D02*
X011385Y008370D01*
X011385Y008488D02*
X011385Y008705D01*
X010990Y008705D01*
X010990Y008825D01*
X010870Y008825D01*
X010870Y009181D01*
X010614Y009181D01*
X010573Y009170D01*
X010536Y009149D01*
X010507Y009119D01*
X010486Y009082D01*
X010475Y009042D01*
X010475Y008825D01*
X010870Y008825D01*
X010870Y008705D01*
X010475Y008705D01*
X010475Y008488D01*
X008864Y008488D01*
X008862Y008370D02*
X010475Y008370D01*
X010475Y008418D02*
X010475Y008238D01*
X010046Y008238D01*
X009969Y008314D01*
X009639Y008314D01*
X009546Y008221D01*
X009546Y008065D01*
X009524Y008013D01*
X009524Y007902D01*
X009546Y007850D01*
X009546Y007694D01*
X009639Y007601D01*
X009969Y007601D01*
X010046Y007678D01*
X010786Y007678D01*
X011150Y007314D01*
X011150Y007181D01*
X010990Y007181D01*
X010990Y006825D01*
X010870Y006825D01*
X010870Y007181D01*
X010614Y007181D01*
X010573Y007170D01*
X010536Y007149D01*
X010507Y007119D01*
X010486Y007082D01*
X010475Y007042D01*
X010475Y006825D01*
X010870Y006825D01*
X010870Y006705D01*
X010475Y006705D01*
X010475Y006488D01*
X010486Y006447D01*
X010492Y006435D01*
X010475Y006418D01*
X010475Y005773D01*
X010568Y005679D01*
X010650Y005679D01*
X010650Y005546D01*
X010423Y005319D01*
X010423Y005319D01*
X010344Y005240D01*
X010302Y005137D01*
X010302Y005042D01*
X010224Y004964D01*
X010224Y004711D01*
X010225Y004710D01*
X010224Y004708D01*
X010224Y004455D01*
X010225Y004454D01*
X010224Y004452D01*
X010224Y004199D01*
X010225Y004198D01*
X010224Y004196D01*
X010224Y003943D01*
X010225Y003942D01*
X010224Y003940D01*
X010224Y003688D01*
X010225Y003686D01*
X010224Y003684D01*
X010224Y003432D01*
X010225Y003430D01*
X010224Y003428D01*
X010224Y003176D01*
X010225Y003174D01*
X010224Y003172D01*
X010224Y002920D01*
X010225Y002918D01*
X010224Y002917D01*
X010224Y002664D01*
X010225Y002662D01*
X010224Y002661D01*
X010224Y002408D01*
X010225Y002406D01*
X010224Y002405D01*
X010224Y002152D01*
X010234Y002142D01*
X010224Y002104D01*
X010224Y002023D01*
X010579Y002023D01*
X010934Y002023D01*
X010934Y002058D01*
X012740Y002058D01*
X012960Y001839D01*
X013089Y001710D01*
X013145Y001710D01*
X013228Y001627D01*
X013359Y001573D01*
X013447Y001573D01*
X013544Y001477D01*
X013632Y001440D01*
X014728Y001440D01*
X014816Y001477D01*
X014883Y001544D01*
X015133Y001794D01*
X016027Y002687D01*
X016241Y002473D01*
X016619Y002473D01*
X016887Y002741D01*
X016887Y003119D01*
X016619Y003387D01*
X016241Y003387D01*
X016024Y003170D01*
X015882Y003170D01*
X015794Y003133D01*
X014794Y002133D01*
X014581Y001920D01*
X013787Y001920D01*
X013787Y002001D01*
X013733Y002132D01*
X013632Y002233D01*
X013501Y002287D01*
X013359Y002287D01*
X013228Y002233D01*
X013208Y002213D01*
X013107Y002314D01*
X014092Y002314D01*
X014127Y002228D01*
X014228Y002127D01*
X014359Y002073D01*
X014501Y002073D01*
X014632Y002127D01*
X014733Y002228D01*
X014787Y002359D01*
X014787Y002447D01*
X015566Y003227D01*
X016027Y003687D01*
X016241Y003473D01*
X016619Y003473D01*
X016887Y003741D01*
X016887Y004119D01*
X016619Y004387D01*
X016241Y004387D01*
X016024Y004170D01*
X015882Y004170D01*
X015794Y004133D01*
X015727Y004066D01*
X015227Y003566D01*
X014447Y002787D01*
X014359Y002787D01*
X014281Y002754D01*
X014065Y002754D01*
X014384Y003073D01*
X014501Y003073D01*
X014632Y003127D01*
X014733Y003228D01*
X014787Y003359D01*
X014787Y003447D01*
X016027Y004687D01*
X016241Y004473D01*
X016619Y004473D01*
X016887Y004741D01*
X016887Y005119D01*
X016619Y005387D01*
X016241Y005387D01*
X016024Y005170D01*
X015509Y005170D01*
X015391Y005052D02*
X015712Y005052D01*
X015727Y005066D02*
X014447Y003787D01*
X014359Y003787D01*
X014228Y003733D01*
X014127Y003632D01*
X014073Y003501D01*
X014073Y003384D01*
X013699Y003010D01*
X013321Y003010D01*
X014384Y004073D01*
X014501Y004073D01*
X014632Y004127D01*
X014733Y004228D01*
X014787Y004359D01*
X014787Y004447D01*
X016027Y005687D01*
X016241Y005473D01*
X016619Y005473D01*
X016887Y005741D01*
X016887Y006119D01*
X016619Y006387D01*
X016241Y006387D01*
X016024Y006170D01*
X015882Y006170D01*
X015794Y006133D01*
X015727Y006066D01*
X014447Y004787D01*
X014359Y004787D01*
X014228Y004733D01*
X014127Y004632D01*
X014073Y004501D01*
X014073Y004384D01*
X012955Y003266D01*
X012577Y003266D01*
X014634Y005323D01*
X014751Y005323D01*
X014882Y005377D01*
X014983Y005478D01*
X015037Y005609D01*
X015037Y005697D01*
X016027Y006687D01*
X016241Y006473D01*
X016619Y006473D01*
X016887Y006741D01*
X016887Y007119D01*
X016619Y007387D01*
X016241Y007387D01*
X016024Y007170D01*
X015882Y007170D01*
X015794Y007133D01*
X015727Y007066D01*
X015405Y007066D01*
X015287Y006948D02*
X015608Y006948D01*
X015727Y007066D02*
X014697Y006037D01*
X014609Y006037D01*
X014478Y005983D01*
X014377Y005882D01*
X014323Y005751D01*
X014323Y005634D01*
X012211Y003522D01*
X012083Y003522D01*
X013771Y005210D01*
X013900Y005339D01*
X013900Y005589D01*
X014634Y006323D01*
X014751Y006323D01*
X014882Y006377D01*
X014983Y006478D01*
X015037Y006609D01*
X015037Y006697D01*
X016027Y007687D01*
X016241Y007473D01*
X016619Y007473D01*
X016887Y007741D01*
X016887Y008119D01*
X016619Y008387D01*
X016241Y008387D01*
X016024Y008170D01*
X015882Y008170D01*
X015794Y008133D01*
X014697Y007037D01*
X014609Y007037D01*
X014478Y006983D01*
X014377Y006882D01*
X014323Y006751D01*
X014323Y006634D01*
X013460Y005771D01*
X013460Y005521D01*
X011717Y003778D01*
X011589Y003778D01*
X013271Y005460D01*
X013400Y005589D01*
X013400Y006089D01*
X014384Y007073D01*
X014501Y007073D01*
X014632Y007127D01*
X014733Y007228D01*
X014787Y007359D01*
X014787Y007447D01*
X016027Y008687D01*
X016241Y008473D01*
X016619Y008473D01*
X016887Y008741D01*
X016887Y009119D01*
X016619Y009387D01*
X016241Y009387D01*
X016024Y009170D01*
X015882Y009170D01*
X015794Y009133D01*
X015727Y009066D01*
X014447Y007787D01*
X014359Y007787D01*
X014228Y007733D01*
X014127Y007632D01*
X014073Y007501D01*
X014073Y007384D01*
X012960Y006271D01*
X012960Y005771D01*
X011400Y004211D01*
X011400Y004339D01*
X012650Y005589D01*
X012650Y006339D01*
X014384Y008073D01*
X014501Y008073D01*
X014632Y008127D01*
X014733Y008228D01*
X014787Y008359D01*
X014787Y008447D01*
X016027Y009687D01*
X016241Y009473D01*
X016619Y009473D01*
X016887Y009741D01*
X016887Y010119D01*
X016619Y010387D01*
X016241Y010387D01*
X016024Y010170D01*
X015882Y010170D01*
X015794Y010133D01*
X014447Y008787D01*
X014359Y008787D01*
X014228Y008733D01*
X014127Y008632D01*
X014073Y008501D01*
X014073Y008384D01*
X012339Y006650D01*
X012210Y006521D01*
X012210Y005771D01*
X011150Y004711D01*
X011150Y004811D01*
X012066Y005727D01*
X012133Y005794D01*
X012170Y005882D01*
X012170Y007331D01*
X012514Y007675D01*
X012549Y007640D01*
X013311Y007640D01*
X013405Y007734D01*
X013405Y008066D01*
X014633Y009294D01*
X014670Y009382D01*
X014670Y009990D01*
X014798Y009990D01*
X014959Y010057D01*
X015083Y010181D01*
X015150Y010342D01*
X015150Y010518D01*
X015083Y010679D01*
X014959Y010803D01*
X014798Y010870D01*
X014062Y010870D01*
X013901Y010803D01*
X013777Y010679D01*
X013710Y010518D01*
X013710Y010342D01*
X013777Y010181D01*
X013901Y010057D01*
X014062Y009990D01*
X014190Y009990D01*
X014190Y009529D01*
X013405Y008744D01*
X012990Y008744D01*
X012990Y008864D01*
X013405Y008864D01*
X013405Y009081D01*
X013394Y009122D01*
X013373Y009158D01*
X013343Y009188D01*
X013307Y009209D01*
X013266Y009220D01*
X012990Y009220D01*
X012990Y008864D01*
X012870Y008864D01*
X012870Y008744D01*
X012455Y008744D01*
X012455Y008527D01*
X012466Y008486D01*
X012487Y008450D01*
X012507Y008430D01*
X012455Y008378D01*
X012455Y008294D01*
X012170Y008009D01*
X012170Y010331D01*
X012455Y010616D01*
X012455Y009984D01*
X012549Y009890D01*
X012635Y009890D01*
X012627Y009882D01*
X012573Y009751D01*
X012573Y009609D01*
X012627Y009478D01*
X012728Y009377D01*
X012859Y009323D01*
X013001Y009323D01*
X013132Y009377D01*
X013233Y009478D01*
X013287Y009609D01*
X013287Y009751D01*
X013233Y009882D01*
X013225Y009890D01*
X013311Y009890D01*
X013405Y009984D01*
X013405Y010628D01*
X013353Y010680D01*
X013405Y010732D01*
X013405Y010846D01*
X013420Y010882D01*
X013420Y010978D01*
X013405Y011014D01*
X013405Y011376D01*
X013311Y011470D01*
X012549Y011470D01*
X012455Y011376D01*
X012455Y011170D01*
X012382Y011170D01*
X012294Y011133D01*
X012138Y010977D01*
X012132Y010983D01*
X012001Y011037D01*
X011859Y011037D01*
X011728Y010983D01*
X011722Y010977D01*
X011442Y011257D01*
X011405Y011273D01*
X011405Y011376D01*
X011311Y011470D01*
X010549Y011470D01*
X010455Y011376D01*
X010455Y011333D01*
X009826Y011333D01*
X009826Y011396D01*
X009732Y011490D01*
X009128Y011490D01*
X009034Y011396D01*
X009034Y010791D01*
X009128Y010697D01*
X009732Y010697D01*
X009826Y010791D01*
X009826Y010853D01*
X010455Y010853D01*
X010455Y010732D01*
X010507Y010680D01*
X010455Y010628D01*
X010455Y009984D01*
X010549Y009890D01*
X010590Y009792D02*
X006871Y009792D01*
X006871Y009910D02*
X007529Y009910D01*
X007455Y010029D02*
X006871Y010029D01*
X006871Y010147D02*
X007455Y010147D01*
X007455Y010266D02*
X006871Y010266D01*
X006871Y010384D02*
X007455Y010384D01*
X007455Y010503D02*
X006871Y010503D01*
X006773Y010767D02*
X006810Y010788D01*
X006840Y010818D01*
X006861Y010854D01*
X006871Y010895D01*
X006871Y011171D01*
X006240Y011171D01*
X006240Y010756D01*
X006733Y010756D01*
X006773Y010767D01*
X006862Y010858D02*
X007455Y010858D01*
X007455Y010977D02*
X006871Y010977D01*
X006871Y011095D02*
X007870Y011095D01*
X007870Y011114D02*
X007455Y011114D01*
X007455Y011331D01*
X007466Y011372D01*
X007487Y011408D01*
X007517Y011438D01*
X007553Y011459D01*
X007594Y011470D01*
X007870Y011470D01*
X007870Y011114D01*
X007870Y011214D02*
X007990Y011214D01*
X007990Y011332D02*
X007870Y011332D01*
X007870Y011451D02*
X007990Y011451D01*
X008321Y011451D02*
X009088Y011451D01*
X009034Y011332D02*
X008405Y011332D01*
X008405Y011214D02*
X009034Y011214D01*
X009034Y011095D02*
X007990Y011095D01*
X008405Y010977D02*
X009034Y010977D01*
X009034Y010858D02*
X008405Y010858D01*
X008395Y010740D02*
X009085Y010740D01*
X009086Y010621D02*
X008405Y010621D01*
X007465Y010740D02*
X004787Y010740D01*
X004743Y010858D02*
X005498Y010858D01*
X005499Y010854D02*
X005520Y010818D01*
X005550Y010788D01*
X005587Y010767D01*
X005627Y010756D01*
X006120Y010756D01*
X006120Y011171D01*
X006240Y011171D01*
X006240Y011291D01*
X006871Y011291D01*
X006871Y011567D01*
X006861Y011608D01*
X006840Y011644D01*
X006810Y011674D01*
X006773Y011695D01*
X006733Y011706D01*
X006240Y011706D01*
X006240Y011291D01*
X006120Y011291D01*
X006120Y011171D01*
X005489Y011171D01*
X005489Y010895D01*
X005499Y010854D01*
X005489Y010977D02*
X004638Y010977D01*
X004599Y011114D02*
X004657Y011153D01*
X004707Y011203D01*
X004746Y011261D01*
X004773Y011326D01*
X004786Y011392D01*
X004468Y011392D01*
X004468Y011468D01*
X004786Y011468D01*
X004773Y011534D01*
X004746Y011599D01*
X004707Y011657D01*
X004657Y011707D01*
X004599Y011746D01*
X004534Y011773D01*
X004468Y011786D01*
X004468Y011468D01*
X004392Y011468D01*
X004392Y011392D01*
X004468Y011392D01*
X004468Y011074D01*
X004534Y011087D01*
X004599Y011114D01*
X004554Y011095D02*
X005489Y011095D01*
X005489Y011291D02*
X005489Y011567D01*
X005499Y011608D01*
X005520Y011644D01*
X005550Y011674D01*
X005587Y011695D01*
X005627Y011706D01*
X006120Y011706D01*
X006120Y011291D01*
X005489Y011291D01*
X005489Y011332D02*
X004774Y011332D01*
X004715Y011214D02*
X006120Y011214D01*
X006120Y011332D02*
X006240Y011332D01*
X006240Y011214D02*
X007455Y011214D01*
X007455Y011332D02*
X006871Y011332D01*
X006871Y011451D02*
X007539Y011451D01*
X006871Y011569D02*
X013731Y011569D01*
X013710Y011518D02*
X013777Y011679D01*
X013901Y011803D01*
X014062Y011870D01*
X014798Y011870D01*
X014959Y011803D01*
X015083Y011679D01*
X015150Y011518D01*
X015150Y011342D01*
X015083Y011181D01*
X014959Y011057D01*
X014798Y010990D01*
X014062Y010990D01*
X013901Y011057D01*
X013777Y011181D01*
X013710Y011342D01*
X013710Y011518D01*
X013710Y011451D02*
X013331Y011451D01*
X013405Y011332D02*
X013714Y011332D01*
X013763Y011214D02*
X013405Y011214D01*
X013405Y011095D02*
X013863Y011095D01*
X014034Y010858D02*
X013410Y010858D01*
X013405Y010740D02*
X013837Y010740D01*
X013753Y010621D02*
X013405Y010621D01*
X013405Y010503D02*
X013710Y010503D01*
X013710Y010384D02*
X013405Y010384D01*
X013405Y010266D02*
X013742Y010266D01*
X013811Y010147D02*
X013405Y010147D01*
X013405Y010029D02*
X013969Y010029D01*
X014190Y009910D02*
X013331Y009910D01*
X013270Y009792D02*
X014190Y009792D01*
X014190Y009673D02*
X013287Y009673D01*
X013264Y009555D02*
X014190Y009555D01*
X014097Y009436D02*
X013191Y009436D01*
X013324Y009199D02*
X013860Y009199D01*
X013978Y009318D02*
X012170Y009318D01*
X012170Y009436D02*
X012669Y009436D01*
X012596Y009555D02*
X012170Y009555D01*
X012170Y009673D02*
X012573Y009673D01*
X012590Y009792D02*
X012170Y009792D01*
X012170Y009910D02*
X012529Y009910D01*
X012455Y010029D02*
X012170Y010029D01*
X012170Y010147D02*
X012455Y010147D01*
X012455Y010266D02*
X012170Y010266D01*
X012223Y010384D02*
X012455Y010384D01*
X012455Y010503D02*
X012342Y010503D01*
X011690Y010266D02*
X011405Y010266D01*
X011405Y010384D02*
X011637Y010384D01*
X011518Y010503D02*
X011405Y010503D01*
X011405Y010147D02*
X011690Y010147D01*
X011690Y010029D02*
X011405Y010029D01*
X011331Y009910D02*
X011690Y009910D01*
X011690Y009792D02*
X011270Y009792D01*
X011287Y009673D02*
X011690Y009673D01*
X011690Y009555D02*
X011264Y009555D01*
X011191Y009436D02*
X011690Y009436D01*
X011690Y009318D02*
X010084Y009318D01*
X010063Y009199D02*
X011690Y009199D01*
X011690Y009081D02*
X011375Y009081D01*
X011374Y009082D02*
X011353Y009119D01*
X011324Y009149D01*
X011287Y009170D01*
X011246Y009181D01*
X010990Y009181D01*
X010990Y008825D01*
X011385Y008825D01*
X011385Y009042D01*
X011374Y009082D01*
X011385Y008962D02*
X011690Y008962D01*
X011690Y008844D02*
X011385Y008844D01*
X011385Y008607D02*
X011690Y008607D01*
X011690Y008725D02*
X010990Y008725D01*
X010990Y008705D02*
X010990Y008511D01*
X010870Y008511D01*
X010870Y008705D01*
X010990Y008705D01*
X010990Y008607D02*
X010870Y008607D01*
X010870Y008725D02*
X010062Y008725D01*
X010062Y008844D02*
X010475Y008844D01*
X010475Y008962D02*
X010062Y008962D01*
X010062Y009081D02*
X010485Y009081D01*
X010870Y009081D02*
X010990Y009081D01*
X010990Y008962D02*
X010870Y008962D01*
X010870Y008844D02*
X010990Y008844D01*
X010475Y008607D02*
X010030Y008607D01*
X010032Y008251D02*
X010475Y008251D01*
X010475Y008418D02*
X010492Y008435D01*
X010486Y008447D01*
X010475Y008488D01*
X011385Y008251D02*
X011690Y008251D01*
X011690Y008133D02*
X011385Y008133D01*
X011385Y008014D02*
X011675Y008014D01*
X011556Y007896D02*
X011385Y007896D01*
X010924Y007540D02*
X009409Y007540D01*
X009316Y007633D02*
X009296Y007653D01*
X009296Y007676D01*
X009314Y007694D01*
X009314Y008221D01*
X009221Y008314D01*
X008891Y008314D01*
X008798Y008221D01*
X008798Y007694D01*
X008816Y007676D01*
X008816Y007506D01*
X008853Y007418D01*
X008977Y007294D01*
X009090Y007181D01*
X009068Y007181D01*
X008975Y007087D01*
X008975Y006442D01*
X008992Y006425D01*
X008986Y006413D01*
X008975Y006372D01*
X008975Y006155D01*
X009370Y006155D01*
X009370Y006035D01*
X009490Y006035D01*
X009490Y005679D01*
X009746Y005679D01*
X009787Y005690D01*
X009824Y005711D01*
X009853Y005741D01*
X009874Y005778D01*
X009885Y005818D01*
X009885Y006035D01*
X009490Y006035D01*
X009490Y006155D01*
X009885Y006155D01*
X009885Y006372D01*
X009874Y006413D01*
X009868Y006425D01*
X009885Y006442D01*
X009885Y007087D01*
X009792Y007181D01*
X009670Y007181D01*
X009670Y007228D01*
X009633Y007316D01*
X009566Y007383D01*
X009316Y007633D01*
X009296Y007659D02*
X009582Y007659D01*
X009546Y007777D02*
X009314Y007777D01*
X009314Y007896D02*
X009527Y007896D01*
X009524Y008014D02*
X009314Y008014D01*
X009314Y008133D02*
X009546Y008133D01*
X009576Y008251D02*
X009284Y008251D01*
X009430Y008546D02*
X009430Y008902D01*
X009430Y008546D01*
X009430Y008607D02*
X009430Y008607D01*
X009430Y008725D02*
X009430Y008725D01*
X009430Y008844D02*
X009430Y008844D01*
X009430Y008902D02*
X009430Y008902D01*
X010053Y009436D02*
X010669Y009436D01*
X010596Y009555D02*
X009951Y009555D01*
X009825Y009673D02*
X010573Y009673D01*
X010455Y010029D02*
X009826Y010029D01*
X009826Y010147D02*
X010455Y010147D01*
X010455Y010266D02*
X009826Y010266D01*
X009826Y010384D02*
X010455Y010384D01*
X010455Y010503D02*
X009826Y010503D01*
X009774Y010621D02*
X010455Y010621D01*
X010455Y010740D02*
X009775Y010740D01*
X009772Y011451D02*
X010529Y011451D01*
X011331Y011451D02*
X012529Y011451D01*
X012455Y011332D02*
X011405Y011332D01*
X011486Y011214D02*
X012455Y011214D01*
X012256Y011095D02*
X011604Y011095D01*
X012930Y011054D02*
X013180Y010930D01*
X013420Y010977D02*
X018940Y010977D01*
X018940Y011095D02*
X014997Y011095D01*
X015097Y011214D02*
X018940Y011214D01*
X018940Y011332D02*
X015146Y011332D01*
X015150Y011451D02*
X018940Y011451D01*
X018940Y011569D02*
X015129Y011569D01*
X015075Y011688D02*
X018940Y011688D01*
X018940Y011806D02*
X014952Y011806D01*
X014826Y010858D02*
X018940Y010858D01*
X018940Y010740D02*
X015023Y010740D01*
X015107Y010621D02*
X018940Y010621D01*
X018940Y010503D02*
X015150Y010503D01*
X015150Y010384D02*
X016238Y010384D01*
X016119Y010266D02*
X015118Y010266D01*
X015049Y010147D02*
X015827Y010147D01*
X015689Y010029D02*
X014891Y010029D01*
X014670Y009910D02*
X015571Y009910D01*
X015452Y009792D02*
X014670Y009792D01*
X014670Y009673D02*
X015334Y009673D01*
X015215Y009555D02*
X014670Y009555D01*
X014670Y009436D02*
X015097Y009436D01*
X014978Y009318D02*
X014643Y009318D01*
X014538Y009199D02*
X014860Y009199D01*
X014741Y009081D02*
X014420Y009081D01*
X014301Y008962D02*
X014623Y008962D01*
X014504Y008844D02*
X014183Y008844D01*
X014220Y008725D02*
X014064Y008725D01*
X014117Y008607D02*
X013946Y008607D01*
X013827Y008488D02*
X014073Y008488D01*
X014058Y008370D02*
X013709Y008370D01*
X013590Y008251D02*
X013940Y008251D01*
X013821Y008133D02*
X013472Y008133D01*
X013405Y008014D02*
X013703Y008014D01*
X013584Y007896D02*
X013405Y007896D01*
X013405Y007777D02*
X013466Y007777D01*
X013347Y007659D02*
X013330Y007659D01*
X013229Y007540D02*
X012379Y007540D01*
X012261Y007422D02*
X013110Y007422D01*
X012992Y007303D02*
X012170Y007303D01*
X012170Y007185D02*
X012873Y007185D01*
X012755Y007066D02*
X012170Y007066D01*
X012170Y006948D02*
X012636Y006948D01*
X012518Y006829D02*
X012170Y006829D01*
X012170Y006711D02*
X012399Y006711D01*
X012281Y006592D02*
X012170Y006592D01*
X012170Y006474D02*
X012210Y006474D01*
X012210Y006355D02*
X012170Y006355D01*
X012170Y006237D02*
X012210Y006237D01*
X012210Y006118D02*
X012170Y006118D01*
X012170Y006000D02*
X012210Y006000D01*
X012210Y005881D02*
X012169Y005881D01*
X012201Y005763D02*
X012102Y005763D01*
X012083Y005644D02*
X011983Y005644D01*
X011964Y005526D02*
X011865Y005526D01*
X011846Y005407D02*
X011746Y005407D01*
X011727Y005289D02*
X011628Y005289D01*
X011609Y005170D02*
X011509Y005170D01*
X011490Y005052D02*
X011391Y005052D01*
X011372Y004933D02*
X011272Y004933D01*
X011253Y004815D02*
X011154Y004815D01*
X010930Y004930D02*
X010930Y004430D01*
X010930Y004326D01*
X010579Y004326D01*
X010579Y004582D02*
X010579Y004837D01*
X010302Y005052D02*
X008549Y005052D01*
X008636Y004933D02*
X010224Y004933D01*
X010224Y004815D02*
X008636Y004815D01*
X008636Y004696D02*
X010224Y004696D01*
X010224Y004578D02*
X008636Y004578D01*
X008636Y004459D02*
X010224Y004459D01*
X010224Y004341D02*
X008636Y004341D01*
X008636Y004222D02*
X010224Y004222D01*
X010224Y004104D02*
X008636Y004104D01*
X008636Y003985D02*
X010224Y003985D01*
X010224Y003867D02*
X008636Y003867D01*
X008636Y003748D02*
X010224Y003748D01*
X010224Y003630D02*
X008636Y003630D01*
X008636Y003511D02*
X010224Y003511D01*
X010224Y003393D02*
X008636Y003393D01*
X008636Y003274D02*
X010224Y003274D01*
X010224Y003156D02*
X008636Y003156D01*
X008636Y003037D02*
X010224Y003037D01*
X010225Y002919D02*
X008635Y002919D01*
X008636Y002800D02*
X010224Y002800D01*
X010224Y002682D02*
X008636Y002682D01*
X008636Y002563D02*
X010224Y002563D01*
X010224Y002445D02*
X008636Y002445D01*
X008636Y002326D02*
X010224Y002326D01*
X010224Y002208D02*
X008636Y002208D01*
X008636Y002089D02*
X010224Y002089D01*
X010224Y002023D02*
X010224Y001941D01*
X010235Y001901D01*
X010256Y001864D01*
X010285Y001834D01*
X010322Y001813D01*
X010363Y001803D01*
X010579Y001803D01*
X010795Y001803D01*
X010835Y001813D01*
X010872Y001834D01*
X010902Y001864D01*
X010923Y001901D01*
X010934Y001941D01*
X010934Y002023D01*
X010579Y002023D01*
X010579Y002023D01*
X010579Y002023D01*
X010579Y001803D01*
X010579Y002023D01*
X010579Y002023D01*
X010224Y002023D01*
X010224Y001971D02*
X008636Y001971D01*
X008636Y001941D02*
X008636Y002023D01*
X008281Y002023D01*
X008281Y002023D01*
X008281Y002023D01*
X008281Y001803D01*
X008497Y001803D01*
X008538Y001813D01*
X008575Y001834D01*
X008604Y001864D01*
X008625Y001901D01*
X008636Y001941D01*
X008592Y001852D02*
X010268Y001852D01*
X010579Y001852D02*
X010579Y001852D01*
X010579Y001971D02*
X010579Y001971D01*
X010579Y002278D02*
X012832Y002278D01*
X012930Y002180D01*
X013180Y001930D01*
X013430Y001930D01*
X013750Y002089D02*
X014321Y002089D01*
X014148Y002208D02*
X013657Y002208D01*
X013787Y001971D02*
X014631Y001971D01*
X014539Y002089D02*
X014750Y002089D01*
X014712Y002208D02*
X014868Y002208D01*
X014773Y002326D02*
X014987Y002326D01*
X015105Y002445D02*
X014787Y002445D01*
X014902Y002563D02*
X015224Y002563D01*
X015342Y002682D02*
X015021Y002682D01*
X015139Y002800D02*
X015461Y002800D01*
X015579Y002919D02*
X015258Y002919D01*
X015376Y003037D02*
X015698Y003037D01*
X015847Y003156D02*
X015495Y003156D01*
X015613Y003274D02*
X016128Y003274D01*
X016203Y003511D02*
X015850Y003511D01*
X015732Y003393D02*
X018940Y003393D01*
X018940Y003511D02*
X017657Y003511D01*
X017619Y003473D02*
X017887Y003741D01*
X017887Y003892D01*
X017468Y003892D01*
X017468Y003968D01*
X017392Y003968D01*
X017392Y003892D01*
X016973Y003892D01*
X016973Y003741D01*
X017241Y003473D01*
X017392Y003473D01*
X017392Y003892D01*
X017468Y003892D01*
X017468Y003473D01*
X017619Y003473D01*
X017619Y003387D02*
X017468Y003387D01*
X017468Y002968D01*
X017392Y002968D01*
X017392Y002892D01*
X016973Y002892D01*
X016973Y002741D01*
X017241Y002473D01*
X017392Y002473D01*
X017392Y002892D01*
X017468Y002892D01*
X017468Y002968D01*
X017887Y002968D01*
X017887Y003119D01*
X017619Y003387D01*
X017732Y003274D02*
X018940Y003274D01*
X018940Y003156D02*
X017851Y003156D01*
X017887Y003037D02*
X018940Y003037D01*
X018940Y002919D02*
X017468Y002919D01*
X017468Y002892D02*
X017887Y002892D01*
X017887Y002741D01*
X017619Y002473D01*
X017468Y002473D01*
X017468Y002892D01*
X017392Y002919D02*
X016887Y002919D01*
X016973Y002968D02*
X017392Y002968D01*
X017392Y003387D01*
X017241Y003387D01*
X016973Y003119D01*
X016973Y002968D01*
X016973Y003037D02*
X016887Y003037D01*
X016851Y003156D02*
X017009Y003156D01*
X017128Y003274D02*
X016732Y003274D01*
X016657Y003511D02*
X017203Y003511D01*
X017084Y003630D02*
X016776Y003630D01*
X016887Y003748D02*
X016973Y003748D01*
X016973Y003867D02*
X016887Y003867D01*
X016887Y003985D02*
X016973Y003985D01*
X016973Y003968D02*
X017392Y003968D01*
X017392Y004387D01*
X017241Y004387D01*
X016973Y004119D01*
X016973Y003968D01*
X016973Y004104D02*
X016887Y004104D01*
X016784Y004222D02*
X017076Y004222D01*
X017194Y004341D02*
X016666Y004341D01*
X016724Y004578D02*
X017136Y004578D01*
X017241Y004473D02*
X016973Y004741D01*
X016973Y004892D01*
X017392Y004892D01*
X017392Y004968D01*
X016973Y004968D01*
X016973Y005119D01*
X017241Y005387D01*
X017392Y005387D01*
X017392Y004968D01*
X017468Y004968D01*
X017468Y005387D01*
X017619Y005387D01*
X017887Y005119D01*
X017887Y004968D01*
X017468Y004968D01*
X017468Y004892D01*
X017887Y004892D01*
X017887Y004741D01*
X017619Y004473D01*
X017468Y004473D01*
X017468Y004892D01*
X017392Y004892D01*
X017392Y004473D01*
X017241Y004473D01*
X017392Y004578D02*
X017468Y004578D01*
X017468Y004696D02*
X017392Y004696D01*
X017392Y004815D02*
X017468Y004815D01*
X017468Y004933D02*
X018940Y004933D01*
X018940Y004815D02*
X017887Y004815D01*
X017842Y004696D02*
X018940Y004696D01*
X018940Y004578D02*
X017724Y004578D01*
X017619Y004387D02*
X017468Y004387D01*
X017468Y003968D01*
X017887Y003968D01*
X017887Y004119D01*
X017619Y004387D01*
X017666Y004341D02*
X018940Y004341D01*
X018940Y004459D02*
X015798Y004459D01*
X015680Y004341D02*
X016194Y004341D01*
X016076Y004222D02*
X015561Y004222D01*
X015443Y004104D02*
X015764Y004104D01*
X015646Y003985D02*
X015324Y003985D01*
X015206Y003867D02*
X015527Y003867D01*
X015409Y003748D02*
X015087Y003748D01*
X014969Y003630D02*
X015290Y003630D01*
X015172Y003511D02*
X014850Y003511D01*
X014787Y003393D02*
X015053Y003393D01*
X014935Y003274D02*
X014752Y003274D01*
X014816Y003156D02*
X014660Y003156D01*
X014698Y003037D02*
X014348Y003037D01*
X014230Y002919D02*
X014579Y002919D01*
X014461Y002800D02*
X014111Y002800D01*
X013790Y002790D02*
X014430Y003430D01*
X014265Y003748D02*
X014059Y003748D01*
X014126Y003630D02*
X013941Y003630D01*
X013822Y003511D02*
X014077Y003511D01*
X014073Y003393D02*
X013704Y003393D01*
X013585Y003274D02*
X013963Y003274D01*
X013844Y003156D02*
X013467Y003156D01*
X013348Y003037D02*
X013726Y003037D01*
X013790Y002790D02*
X010579Y002790D01*
X010579Y002534D02*
X014326Y002534D01*
X014430Y002430D01*
X015073Y001734D02*
X018940Y001734D01*
X018940Y001852D02*
X015191Y001852D01*
X015310Y001971D02*
X018940Y001971D01*
X018940Y002089D02*
X015428Y002089D01*
X015547Y002208D02*
X018940Y002208D01*
X018940Y002326D02*
X015665Y002326D01*
X015784Y002445D02*
X018940Y002445D01*
X018940Y002563D02*
X017709Y002563D01*
X017828Y002682D02*
X018940Y002682D01*
X018940Y002800D02*
X017887Y002800D01*
X017468Y002800D02*
X017392Y002800D01*
X017392Y002682D02*
X017468Y002682D01*
X017468Y002563D02*
X017392Y002563D01*
X017151Y002563D02*
X016709Y002563D01*
X016828Y002682D02*
X017032Y002682D01*
X016973Y002800D02*
X016887Y002800D01*
X017392Y003037D02*
X017468Y003037D01*
X017468Y003156D02*
X017392Y003156D01*
X017392Y003274D02*
X017468Y003274D01*
X017468Y003511D02*
X017392Y003511D01*
X017392Y003630D02*
X017468Y003630D01*
X017468Y003748D02*
X017392Y003748D01*
X017392Y003867D02*
X017468Y003867D01*
X017468Y003985D02*
X017392Y003985D01*
X017392Y004104D02*
X017468Y004104D01*
X017468Y004222D02*
X017392Y004222D01*
X017392Y004341D02*
X017468Y004341D01*
X017784Y004222D02*
X018940Y004222D01*
X018940Y004104D02*
X017887Y004104D01*
X017887Y003985D02*
X018940Y003985D01*
X018940Y003867D02*
X017887Y003867D01*
X017887Y003748D02*
X018940Y003748D01*
X018940Y003630D02*
X017776Y003630D01*
X017018Y004696D02*
X016842Y004696D01*
X016887Y004815D02*
X016973Y004815D01*
X016887Y004933D02*
X017392Y004933D01*
X017392Y005052D02*
X017468Y005052D01*
X017468Y005170D02*
X017392Y005170D01*
X017392Y005289D02*
X017468Y005289D01*
X017468Y005473D02*
X017619Y005473D01*
X017887Y005741D01*
X017887Y005892D01*
X017468Y005892D01*
X017468Y005968D01*
X017392Y005968D01*
X017392Y005892D01*
X016973Y005892D01*
X016973Y005741D01*
X017241Y005473D01*
X017392Y005473D01*
X017392Y005892D01*
X017468Y005892D01*
X017468Y005473D01*
X017468Y005526D02*
X017392Y005526D01*
X017392Y005644D02*
X017468Y005644D01*
X017468Y005763D02*
X017392Y005763D01*
X017392Y005881D02*
X017468Y005881D01*
X017468Y005968D02*
X017887Y005968D01*
X017887Y006119D01*
X017619Y006387D01*
X017468Y006387D01*
X017468Y005968D01*
X017468Y006000D02*
X017392Y006000D01*
X017392Y005968D02*
X017392Y006387D01*
X017241Y006387D01*
X016973Y006119D01*
X016973Y005968D01*
X017392Y005968D01*
X017392Y006118D02*
X017468Y006118D01*
X017468Y006237D02*
X017392Y006237D01*
X017392Y006355D02*
X017468Y006355D01*
X017468Y006473D02*
X017619Y006473D01*
X017887Y006741D01*
X017887Y006892D01*
X017468Y006892D01*
X017468Y006968D01*
X017392Y006968D01*
X017392Y006892D01*
X016973Y006892D01*
X016973Y006741D01*
X017241Y006473D01*
X017392Y006473D01*
X017392Y006892D01*
X017468Y006892D01*
X017468Y006473D01*
X017468Y006474D02*
X017392Y006474D01*
X017392Y006592D02*
X017468Y006592D01*
X017468Y006711D02*
X017392Y006711D01*
X017392Y006829D02*
X017468Y006829D01*
X017468Y006948D02*
X018940Y006948D01*
X018940Y007066D02*
X017887Y007066D01*
X017887Y007119D02*
X017619Y007387D01*
X017468Y007387D01*
X017468Y006968D01*
X017887Y006968D01*
X017887Y007119D01*
X017822Y007185D02*
X018940Y007185D01*
X018940Y007303D02*
X017703Y007303D01*
X017619Y007473D02*
X017468Y007473D01*
X017468Y007892D01*
X017468Y007968D01*
X017392Y007968D01*
X017392Y007892D01*
X016973Y007892D01*
X016973Y007741D01*
X017241Y007473D01*
X017392Y007473D01*
X017392Y007892D01*
X017468Y007892D01*
X017887Y007892D01*
X017887Y007741D01*
X017619Y007473D01*
X017686Y007540D02*
X018940Y007540D01*
X018940Y007422D02*
X015761Y007422D01*
X015879Y007540D02*
X016174Y007540D01*
X016055Y007659D02*
X015998Y007659D01*
X016157Y007303D02*
X015642Y007303D01*
X015524Y007185D02*
X016038Y007185D01*
X016703Y007303D02*
X017157Y007303D01*
X017241Y007387D02*
X016973Y007119D01*
X016973Y006968D01*
X017392Y006968D01*
X017392Y007387D01*
X017241Y007387D01*
X017174Y007540D02*
X016686Y007540D01*
X016805Y007659D02*
X017055Y007659D01*
X016973Y007777D02*
X016887Y007777D01*
X016887Y007896D02*
X017392Y007896D01*
X017392Y007968D02*
X016973Y007968D01*
X016973Y008119D01*
X017241Y008387D01*
X017392Y008387D01*
X017392Y007968D01*
X017392Y008014D02*
X017468Y008014D01*
X017468Y007968D02*
X017468Y008387D01*
X017619Y008387D01*
X017887Y008119D01*
X017887Y007968D01*
X017468Y007968D01*
X017468Y007896D02*
X018940Y007896D01*
X018940Y008014D02*
X017887Y008014D01*
X017874Y008133D02*
X018940Y008133D01*
X018940Y008251D02*
X017755Y008251D01*
X017637Y008370D02*
X018940Y008370D01*
X018940Y008488D02*
X017634Y008488D01*
X017619Y008473D02*
X017887Y008741D01*
X017887Y008892D01*
X017468Y008892D01*
X017468Y008968D01*
X017392Y008968D01*
X017392Y008892D01*
X016973Y008892D01*
X016973Y008741D01*
X017241Y008473D01*
X017392Y008473D01*
X017392Y008892D01*
X017468Y008892D01*
X017468Y008473D01*
X017619Y008473D01*
X017468Y008488D02*
X017392Y008488D01*
X017392Y008370D02*
X017468Y008370D01*
X017468Y008251D02*
X017392Y008251D01*
X017392Y008133D02*
X017468Y008133D01*
X017223Y008370D02*
X016637Y008370D01*
X016634Y008488D02*
X017226Y008488D01*
X017107Y008607D02*
X016753Y008607D01*
X016871Y008725D02*
X016989Y008725D01*
X016973Y008844D02*
X016887Y008844D01*
X016887Y008962D02*
X017392Y008962D01*
X017392Y008968D02*
X016973Y008968D01*
X016973Y009119D01*
X017241Y009387D01*
X017392Y009387D01*
X017392Y008968D01*
X017468Y008968D02*
X017468Y009387D01*
X017619Y009387D01*
X017887Y009119D01*
X017887Y008968D01*
X017468Y008968D01*
X017468Y008962D02*
X018940Y008962D01*
X018940Y008844D02*
X017887Y008844D01*
X017871Y008725D02*
X018940Y008725D01*
X018940Y008607D02*
X017753Y008607D01*
X017468Y008607D02*
X017392Y008607D01*
X017392Y008725D02*
X017468Y008725D01*
X017468Y008844D02*
X017392Y008844D01*
X017392Y009081D02*
X017468Y009081D01*
X017468Y009199D02*
X017392Y009199D01*
X017392Y009318D02*
X017468Y009318D01*
X017468Y009473D02*
X017619Y009473D01*
X017887Y009741D01*
X017887Y009892D01*
X017468Y009892D01*
X017468Y009968D01*
X017392Y009968D01*
X017392Y009892D01*
X016973Y009892D01*
X016973Y009741D01*
X017241Y009473D01*
X017392Y009473D01*
X017392Y009892D01*
X017468Y009892D01*
X017468Y009473D01*
X017468Y009555D02*
X017392Y009555D01*
X017392Y009673D02*
X017468Y009673D01*
X017468Y009792D02*
X017392Y009792D01*
X017392Y009910D02*
X016887Y009910D01*
X016973Y009968D02*
X017392Y009968D01*
X017392Y010387D01*
X017241Y010387D01*
X016973Y010119D01*
X016973Y009968D01*
X016973Y010029D02*
X016887Y010029D01*
X016859Y010147D02*
X017001Y010147D01*
X017119Y010266D02*
X016741Y010266D01*
X016622Y010384D02*
X017238Y010384D01*
X017392Y010384D02*
X017468Y010384D01*
X017468Y010387D02*
X017468Y009968D01*
X017887Y009968D01*
X017887Y010119D01*
X017619Y010387D01*
X017468Y010387D01*
X017468Y010266D02*
X017392Y010266D01*
X017392Y010147D02*
X017468Y010147D01*
X017468Y010029D02*
X017392Y010029D01*
X017468Y009910D02*
X018940Y009910D01*
X018940Y009792D02*
X017887Y009792D01*
X017819Y009673D02*
X018940Y009673D01*
X018940Y009555D02*
X017701Y009555D01*
X017689Y009318D02*
X018940Y009318D01*
X018940Y009436D02*
X015775Y009436D01*
X015657Y009318D02*
X016171Y009318D01*
X016053Y009199D02*
X015538Y009199D01*
X015420Y009081D02*
X015741Y009081D01*
X015623Y008962D02*
X015301Y008962D01*
X015183Y008844D02*
X015504Y008844D01*
X015386Y008725D02*
X015064Y008725D01*
X014946Y008607D02*
X015267Y008607D01*
X015149Y008488D02*
X014827Y008488D01*
X014787Y008370D02*
X015030Y008370D01*
X014912Y008251D02*
X014742Y008251D01*
X014793Y008133D02*
X014637Y008133D01*
X014675Y008014D02*
X014325Y008014D01*
X014207Y007896D02*
X014556Y007896D01*
X014335Y007777D02*
X014088Y007777D01*
X014154Y007659D02*
X013970Y007659D01*
X013851Y007540D02*
X014089Y007540D01*
X014073Y007422D02*
X013733Y007422D01*
X013614Y007303D02*
X013992Y007303D01*
X013873Y007185D02*
X013496Y007185D01*
X013377Y007066D02*
X013755Y007066D01*
X013636Y006948D02*
X013259Y006948D01*
X013140Y006829D02*
X013518Y006829D01*
X013399Y006711D02*
X013022Y006711D01*
X012903Y006592D02*
X013281Y006592D01*
X013162Y006474D02*
X012785Y006474D01*
X012666Y006355D02*
X013044Y006355D01*
X012960Y006237D02*
X012650Y006237D01*
X012650Y006118D02*
X012960Y006118D01*
X012960Y006000D02*
X012650Y006000D01*
X012650Y005881D02*
X012960Y005881D01*
X012951Y005763D02*
X012650Y005763D01*
X012650Y005644D02*
X012833Y005644D01*
X012714Y005526D02*
X012587Y005526D01*
X012596Y005407D02*
X012468Y005407D01*
X012477Y005289D02*
X012350Y005289D01*
X012359Y005170D02*
X012231Y005170D01*
X012240Y005052D02*
X012113Y005052D01*
X012122Y004933D02*
X011994Y004933D01*
X012003Y004815D02*
X011876Y004815D01*
X011885Y004696D02*
X011757Y004696D01*
X011766Y004578D02*
X011639Y004578D01*
X011648Y004459D02*
X011520Y004459D01*
X011529Y004341D02*
X011402Y004341D01*
X011400Y004222D02*
X011411Y004222D01*
X011180Y004180D02*
X011180Y004430D01*
X012430Y005680D01*
X012430Y006430D01*
X014430Y008430D01*
X015116Y007777D02*
X015438Y007777D01*
X015556Y007896D02*
X015235Y007896D01*
X015353Y008014D02*
X015675Y008014D01*
X015793Y008133D02*
X015472Y008133D01*
X015590Y008251D02*
X016105Y008251D01*
X016223Y008370D02*
X015709Y008370D01*
X015827Y008488D02*
X016226Y008488D01*
X016107Y008607D02*
X015946Y008607D01*
X016755Y008251D02*
X017105Y008251D01*
X016986Y008133D02*
X016874Y008133D01*
X016887Y008014D02*
X016973Y008014D01*
X017392Y007777D02*
X017468Y007777D01*
X017468Y007659D02*
X017392Y007659D01*
X017392Y007540D02*
X017468Y007540D01*
X017468Y007303D02*
X017392Y007303D01*
X017392Y007185D02*
X017468Y007185D01*
X017468Y007066D02*
X017392Y007066D01*
X017392Y006948D02*
X016887Y006948D01*
X016887Y007066D02*
X016973Y007066D01*
X017038Y007185D02*
X016822Y007185D01*
X016887Y006829D02*
X016973Y006829D01*
X017003Y006711D02*
X016857Y006711D01*
X016738Y006592D02*
X017122Y006592D01*
X017240Y006474D02*
X016620Y006474D01*
X016651Y006355D02*
X017209Y006355D01*
X017090Y006237D02*
X016770Y006237D01*
X016887Y006118D02*
X016973Y006118D01*
X016973Y006000D02*
X016887Y006000D01*
X016887Y005881D02*
X016973Y005881D01*
X016973Y005763D02*
X016887Y005763D01*
X016790Y005644D02*
X017070Y005644D01*
X017188Y005526D02*
X016672Y005526D01*
X016718Y005289D02*
X017142Y005289D01*
X017024Y005170D02*
X016836Y005170D01*
X016887Y005052D02*
X016973Y005052D01*
X017718Y005289D02*
X018940Y005289D01*
X018940Y005407D02*
X015746Y005407D01*
X015628Y005289D02*
X016142Y005289D01*
X016024Y005170D02*
X015882Y005170D01*
X015794Y005133D01*
X015727Y005066D01*
X015727Y005066D01*
X015594Y004933D02*
X015272Y004933D01*
X015154Y004815D02*
X015475Y004815D01*
X015357Y004696D02*
X015035Y004696D01*
X014917Y004578D02*
X015238Y004578D01*
X015120Y004459D02*
X014798Y004459D01*
X014779Y004341D02*
X015001Y004341D01*
X014883Y004222D02*
X014727Y004222D01*
X014764Y004104D02*
X014574Y004104D01*
X014646Y003985D02*
X014296Y003985D01*
X014178Y003867D02*
X014527Y003867D01*
X014430Y004430D02*
X013046Y003046D01*
X010579Y003046D01*
X010579Y003302D02*
X012302Y003302D01*
X014680Y005680D01*
X015002Y005526D02*
X015186Y005526D01*
X015305Y005644D02*
X015037Y005644D01*
X015102Y005763D02*
X015423Y005763D01*
X015542Y005881D02*
X015220Y005881D01*
X015339Y006000D02*
X015660Y006000D01*
X015779Y006118D02*
X015457Y006118D01*
X015576Y006237D02*
X016090Y006237D01*
X016209Y006355D02*
X015694Y006355D01*
X015813Y006474D02*
X016240Y006474D01*
X016122Y006592D02*
X015931Y006592D01*
X015490Y006829D02*
X015168Y006829D01*
X015050Y006711D02*
X015371Y006711D01*
X015253Y006592D02*
X015030Y006592D01*
X014978Y006474D02*
X015134Y006474D01*
X015016Y006355D02*
X014828Y006355D01*
X014897Y006237D02*
X014548Y006237D01*
X014429Y006118D02*
X014779Y006118D01*
X014519Y006000D02*
X014311Y006000D01*
X014377Y005881D02*
X014192Y005881D01*
X014074Y005763D02*
X014328Y005763D01*
X014323Y005644D02*
X013955Y005644D01*
X013900Y005526D02*
X014214Y005526D01*
X014096Y005407D02*
X013900Y005407D01*
X013850Y005289D02*
X013977Y005289D01*
X013859Y005170D02*
X013731Y005170D01*
X013740Y005052D02*
X013613Y005052D01*
X013622Y004933D02*
X013494Y004933D01*
X013503Y004815D02*
X013376Y004815D01*
X013385Y004696D02*
X013257Y004696D01*
X013266Y004578D02*
X013139Y004578D01*
X013148Y004459D02*
X013020Y004459D01*
X013029Y004341D02*
X012902Y004341D01*
X012911Y004222D02*
X012783Y004222D01*
X012792Y004104D02*
X012665Y004104D01*
X012674Y003985D02*
X012546Y003985D01*
X012555Y003867D02*
X012428Y003867D01*
X012437Y003748D02*
X012309Y003748D01*
X012318Y003630D02*
X012191Y003630D01*
X011930Y003680D02*
X013680Y005430D01*
X013680Y005680D01*
X014680Y006680D01*
X014355Y006829D02*
X014140Y006829D01*
X014022Y006711D02*
X014323Y006711D01*
X014281Y006592D02*
X013903Y006592D01*
X013785Y006474D02*
X014162Y006474D01*
X014044Y006355D02*
X013666Y006355D01*
X013548Y006237D02*
X013925Y006237D01*
X013807Y006118D02*
X013429Y006118D01*
X013400Y006000D02*
X013688Y006000D01*
X013570Y005881D02*
X013400Y005881D01*
X013400Y005763D02*
X013460Y005763D01*
X013460Y005644D02*
X013400Y005644D01*
X013460Y005526D02*
X013337Y005526D01*
X013346Y005407D02*
X013218Y005407D01*
X013227Y005289D02*
X013100Y005289D01*
X013109Y005170D02*
X012981Y005170D01*
X012990Y005052D02*
X012863Y005052D01*
X012872Y004933D02*
X012744Y004933D01*
X012753Y004815D02*
X012626Y004815D01*
X012635Y004696D02*
X012507Y004696D01*
X012516Y004578D02*
X012389Y004578D01*
X012398Y004459D02*
X012270Y004459D01*
X012279Y004341D02*
X012152Y004341D01*
X012161Y004222D02*
X012033Y004222D01*
X012042Y004104D02*
X011915Y004104D01*
X011924Y003985D02*
X011796Y003985D01*
X011805Y003867D02*
X011678Y003867D01*
X011430Y003930D02*
X011314Y003814D01*
X010579Y003814D01*
X010579Y004070D02*
X011070Y004070D01*
X011180Y004180D01*
X011430Y003930D02*
X013180Y005680D01*
X013180Y006180D01*
X014430Y007430D01*
X014787Y007422D02*
X015082Y007422D01*
X015201Y007540D02*
X014879Y007540D01*
X014998Y007659D02*
X015319Y007659D01*
X014964Y007303D02*
X014764Y007303D01*
X014689Y007185D02*
X014845Y007185D01*
X014727Y007066D02*
X014377Y007066D01*
X014443Y006948D02*
X014259Y006948D01*
X012530Y007659D02*
X012498Y007659D01*
X012175Y008014D02*
X012170Y008014D01*
X012170Y008133D02*
X012293Y008133D01*
X012412Y008251D02*
X012170Y008251D01*
X012170Y008370D02*
X012455Y008370D01*
X012465Y008488D02*
X012170Y008488D01*
X012170Y008607D02*
X012455Y008607D01*
X012455Y008725D02*
X012170Y008725D01*
X012170Y008844D02*
X012870Y008844D01*
X012870Y008864D02*
X012455Y008864D01*
X012455Y009081D01*
X012466Y009122D01*
X012487Y009158D01*
X012517Y009188D01*
X012553Y009209D01*
X012594Y009220D01*
X012870Y009220D01*
X012870Y008864D01*
X012870Y008962D02*
X012990Y008962D01*
X012990Y008844D02*
X013504Y008844D01*
X013405Y008962D02*
X013623Y008962D01*
X013741Y009081D02*
X013405Y009081D01*
X012990Y009081D02*
X012870Y009081D01*
X012870Y009199D02*
X012990Y009199D01*
X012536Y009199D02*
X012170Y009199D01*
X012170Y009081D02*
X012455Y009081D01*
X012455Y008962D02*
X012170Y008962D01*
X010806Y007659D02*
X010027Y007659D01*
X009639Y007303D02*
X011150Y007303D01*
X011150Y007185D02*
X009670Y007185D01*
X009885Y007066D02*
X010481Y007066D01*
X010475Y006948D02*
X009885Y006948D01*
X009885Y006829D02*
X010475Y006829D01*
X010475Y006592D02*
X009885Y006592D01*
X009885Y006474D02*
X010479Y006474D01*
X010475Y006355D02*
X009885Y006355D01*
X009885Y006237D02*
X010475Y006237D01*
X010475Y006118D02*
X009490Y006118D01*
X009490Y006000D02*
X009370Y006000D01*
X009370Y006035D02*
X009370Y005679D01*
X009114Y005679D01*
X009073Y005690D01*
X009036Y005711D01*
X009007Y005741D01*
X008986Y005778D01*
X008975Y005818D01*
X008975Y006035D01*
X009370Y006035D01*
X009370Y006118D02*
X008385Y006118D01*
X008385Y006000D02*
X008975Y006000D01*
X008975Y005881D02*
X008385Y005881D01*
X008375Y005763D02*
X008994Y005763D01*
X009370Y005763D02*
X009490Y005763D01*
X009490Y005881D02*
X009370Y005881D01*
X009866Y005763D02*
X010485Y005763D01*
X010475Y005881D02*
X009885Y005881D01*
X009885Y006000D02*
X010475Y006000D01*
X010650Y005644D02*
X008210Y005644D01*
X008230Y005526D02*
X010630Y005526D01*
X010511Y005407D02*
X008349Y005407D01*
X008438Y005289D02*
X010393Y005289D01*
X010315Y005170D02*
X008460Y005170D01*
X007693Y004578D02*
X007594Y004578D01*
X007575Y004696D02*
X007475Y004696D01*
X007468Y004815D02*
X007357Y004815D01*
X007440Y004933D02*
X007238Y004933D01*
X007139Y005052D02*
X007440Y005052D01*
X007351Y005170D02*
X006445Y005170D01*
X006531Y005644D02*
X006877Y005644D01*
X006995Y005526D02*
X005674Y005526D01*
X005555Y005644D02*
X005829Y005644D01*
X005709Y005763D02*
X005437Y005763D01*
X005318Y005881D02*
X005705Y005881D01*
X005705Y006118D02*
X005081Y006118D01*
X004963Y006237D02*
X005705Y006237D01*
X005711Y006355D02*
X004844Y006355D01*
X004726Y006474D02*
X005713Y006474D01*
X005705Y006592D02*
X004607Y006592D01*
X004489Y006711D02*
X005705Y006711D01*
X005705Y006829D02*
X004370Y006829D01*
X004252Y006948D02*
X005705Y006948D01*
X005705Y007066D02*
X004133Y007066D01*
X004015Y007185D02*
X005763Y007185D01*
X005780Y007659D02*
X003505Y007659D01*
X003659Y007540D02*
X006440Y007540D01*
X006440Y007422D02*
X003778Y007422D01*
X003896Y007303D02*
X006440Y007303D01*
X005705Y007777D02*
X000590Y007777D01*
X000590Y007659D02*
X002355Y007659D01*
X002227Y007566D02*
X002227Y007566D01*
X002201Y007540D02*
X000590Y007540D01*
X000590Y007422D02*
X002082Y007422D01*
X001657Y007303D02*
X000590Y007303D01*
X000590Y007185D02*
X001538Y007185D01*
X001473Y007066D02*
X000590Y007066D01*
X000590Y006948D02*
X001473Y006948D01*
X001473Y006829D02*
X000590Y006829D01*
X000590Y006711D02*
X001503Y006711D01*
X001622Y006592D02*
X000590Y006592D01*
X000590Y006474D02*
X001740Y006474D01*
X001709Y006355D02*
X000590Y006355D01*
X000590Y006237D02*
X001590Y006237D01*
X001473Y006118D02*
X000590Y006118D01*
X000590Y006000D02*
X001473Y006000D01*
X001473Y005881D02*
X000590Y005881D01*
X000590Y005763D02*
X001473Y005763D01*
X001570Y005644D02*
X000590Y005644D01*
X000590Y005526D02*
X001688Y005526D01*
X001642Y005289D02*
X000590Y005289D01*
X000590Y005407D02*
X002068Y005407D01*
X002172Y005526D02*
X002186Y005526D01*
X002290Y005644D02*
X002320Y005644D01*
X002387Y005763D02*
X002473Y005763D01*
X002473Y005881D02*
X002387Y005881D01*
X002387Y006000D02*
X002473Y006000D01*
X002473Y006118D02*
X002457Y006118D01*
X002134Y006474D02*
X002120Y006474D01*
X002238Y006592D02*
X002253Y006592D01*
X002357Y006711D02*
X002503Y006711D01*
X002473Y006829D02*
X002387Y006829D01*
X002387Y006948D02*
X002473Y006948D01*
X002473Y007066D02*
X002405Y007066D01*
X002524Y007185D02*
X002538Y007185D01*
X000590Y007896D02*
X005705Y007896D01*
X005705Y008014D02*
X000590Y008014D01*
X000590Y008133D02*
X005705Y008133D01*
X005705Y008251D02*
X000590Y008251D01*
X000590Y008370D02*
X005705Y008370D01*
X005705Y008488D02*
X000590Y008488D01*
X000590Y008607D02*
X005705Y008607D01*
X005705Y008725D02*
X000590Y008725D01*
X000590Y008844D02*
X005705Y008844D01*
X005705Y008962D02*
X000590Y008962D01*
X000590Y009081D02*
X005705Y009081D01*
X005778Y009199D02*
X000590Y009199D01*
X000590Y009318D02*
X005900Y009318D01*
X005900Y009436D02*
X000590Y009436D01*
X000590Y009555D02*
X005900Y009555D01*
X005563Y009673D02*
X000590Y009673D01*
X000590Y009792D02*
X005489Y009792D01*
X005350Y009910D02*
X000590Y009910D01*
X000590Y010029D02*
X001909Y010029D01*
X001770Y010147D02*
X000590Y010147D01*
X000590Y010266D02*
X001707Y010266D01*
X001676Y010384D02*
X000590Y010384D01*
X000590Y010503D02*
X001676Y010503D01*
X001718Y010621D02*
X000590Y010621D01*
X000590Y010740D02*
X001797Y010740D01*
X001973Y010858D02*
X000590Y010858D01*
X000590Y010977D02*
X002076Y010977D01*
X002097Y010973D02*
X002392Y010973D01*
X002392Y011392D01*
X002468Y011392D01*
X002468Y010973D01*
X002763Y010973D01*
X002834Y010984D01*
X002902Y011007D01*
X002966Y011039D01*
X003024Y011082D01*
X003075Y011132D01*
X003118Y011191D01*
X003150Y011255D01*
X003172Y011323D01*
X003183Y011392D01*
X002468Y011392D01*
X002468Y011468D01*
X002392Y011468D01*
X002392Y011392D01*
X001677Y011392D01*
X001688Y011323D01*
X001710Y011255D01*
X001742Y011191D01*
X001785Y011132D01*
X001836Y011082D01*
X001894Y011039D01*
X001958Y011007D01*
X002026Y010984D01*
X002097Y010973D01*
X002392Y010977D02*
X002468Y010977D01*
X002468Y011095D02*
X002392Y011095D01*
X002392Y011214D02*
X002468Y011214D01*
X002468Y011332D02*
X002392Y011332D01*
X002392Y011451D02*
X000590Y011451D01*
X000590Y011569D02*
X001698Y011569D01*
X001688Y011537D02*
X001677Y011468D01*
X002392Y011468D01*
X002392Y011887D01*
X002097Y011887D01*
X002026Y011876D01*
X001958Y011853D01*
X001894Y011821D01*
X001836Y011778D01*
X001785Y011728D01*
X001742Y011669D01*
X001710Y011605D01*
X001688Y011537D01*
X001756Y011688D02*
X000590Y011688D01*
X000590Y011806D02*
X001873Y011806D01*
X001686Y011332D02*
X000590Y011332D01*
X000590Y011214D02*
X001731Y011214D01*
X001822Y011095D02*
X000590Y011095D01*
X000617Y011863D02*
X000743Y011863D01*
X000860Y011911D01*
X000949Y012000D01*
X000997Y012117D01*
X000997Y012243D01*
X000949Y012360D01*
X000869Y012440D01*
X018491Y012440D01*
X018411Y012360D01*
X018363Y012243D01*
X018363Y012117D01*
X018411Y012000D01*
X018500Y011911D01*
X018617Y011863D01*
X018743Y011863D01*
X018860Y011911D01*
X018940Y011991D01*
X018940Y000869D01*
X018860Y000949D01*
X018743Y000997D01*
X018617Y000997D01*
X018500Y000949D01*
X018411Y000860D01*
X018363Y000743D01*
X018363Y000617D01*
X018374Y000590D01*
X000986Y000590D01*
X000997Y000617D01*
X000997Y000743D01*
X000949Y000860D01*
X000860Y000949D01*
X000743Y000997D01*
X000617Y000997D01*
X000590Y000986D01*
X000590Y011874D01*
X000617Y011863D01*
X000874Y011925D02*
X018486Y011925D01*
X018393Y012043D02*
X000967Y012043D01*
X000997Y012162D02*
X018363Y012162D01*
X018378Y012280D02*
X000982Y012280D01*
X000910Y012399D02*
X018450Y012399D01*
X018874Y011925D02*
X018940Y011925D01*
X018940Y010384D02*
X017622Y010384D01*
X017741Y010266D02*
X018940Y010266D01*
X018940Y010147D02*
X017859Y010147D01*
X017887Y010029D02*
X018940Y010029D01*
X018940Y009199D02*
X017807Y009199D01*
X017887Y009081D02*
X018940Y009081D01*
X018940Y007777D02*
X017887Y007777D01*
X017805Y007659D02*
X018940Y007659D01*
X018940Y006829D02*
X017887Y006829D01*
X017857Y006711D02*
X018940Y006711D01*
X018940Y006592D02*
X017738Y006592D01*
X017620Y006474D02*
X018940Y006474D01*
X018940Y006355D02*
X017651Y006355D01*
X017770Y006237D02*
X018940Y006237D01*
X018940Y006118D02*
X017887Y006118D01*
X017887Y006000D02*
X018940Y006000D01*
X018940Y005881D02*
X017887Y005881D01*
X017887Y005763D02*
X018940Y005763D01*
X018940Y005644D02*
X017790Y005644D01*
X017672Y005526D02*
X018940Y005526D01*
X018940Y005170D02*
X017836Y005170D01*
X017887Y005052D02*
X018940Y005052D01*
X016188Y005526D02*
X015865Y005526D01*
X015983Y005644D02*
X016070Y005644D01*
X015068Y005407D02*
X014912Y005407D01*
X014949Y005289D02*
X014600Y005289D01*
X014481Y005170D02*
X014831Y005170D01*
X014712Y005052D02*
X014363Y005052D01*
X014244Y004933D02*
X014594Y004933D01*
X014475Y004815D02*
X014126Y004815D01*
X014191Y004696D02*
X014007Y004696D01*
X014105Y004578D02*
X013889Y004578D01*
X013770Y004459D02*
X014073Y004459D01*
X014029Y004341D02*
X013652Y004341D01*
X013533Y004222D02*
X013911Y004222D01*
X013792Y004104D02*
X013415Y004104D01*
X013296Y003985D02*
X013674Y003985D01*
X013555Y003867D02*
X013178Y003867D01*
X013059Y003748D02*
X013437Y003748D01*
X013318Y003630D02*
X012941Y003630D01*
X012822Y003511D02*
X013200Y003511D01*
X013081Y003393D02*
X012704Y003393D01*
X012585Y003274D02*
X012963Y003274D01*
X011930Y003680D02*
X011808Y003558D01*
X011558Y003558D01*
X010579Y003558D01*
X010934Y001971D02*
X012828Y001971D01*
X012947Y001852D02*
X010889Y001852D01*
X013065Y001734D02*
X007545Y001734D01*
X007663Y001852D02*
X007971Y001852D01*
X007926Y001971D02*
X007782Y001971D01*
X007900Y002089D02*
X007926Y002089D01*
X008281Y001971D02*
X008281Y001971D01*
X008281Y001852D02*
X008281Y001852D01*
X008281Y002534D02*
X008034Y002534D01*
X006930Y001430D01*
X007099Y001260D02*
X018940Y001260D01*
X018940Y001378D02*
X007189Y001378D01*
X007308Y001497D02*
X013524Y001497D01*
X013258Y001615D02*
X007426Y001615D01*
X006930Y001930D02*
X007680Y002680D01*
X007790Y002790D01*
X008040Y002790D01*
X008281Y002790D01*
X008281Y003046D02*
X007796Y003046D01*
X007546Y003046D01*
X007430Y002930D01*
X006930Y002430D01*
X006680Y002430D02*
X006180Y002430D01*
X006180Y001930D02*
X005930Y001930D01*
X005406Y001615D02*
X000590Y001615D01*
X000590Y001497D02*
X005524Y001497D01*
X005643Y001378D02*
X000590Y001378D01*
X000590Y001260D02*
X005761Y001260D01*
X005287Y001734D02*
X000590Y001734D01*
X000590Y001852D02*
X005169Y001852D01*
X005050Y001971D02*
X000590Y001971D01*
X000590Y002089D02*
X004932Y002089D01*
X004813Y002208D02*
X000590Y002208D01*
X000590Y002326D02*
X004695Y002326D01*
X004576Y002445D02*
X000590Y002445D01*
X000590Y002563D02*
X001651Y002563D01*
X001741Y002473D02*
X001473Y002741D01*
X001473Y002892D01*
X001892Y002892D01*
X001892Y002968D01*
X001473Y002968D01*
X001473Y003119D01*
X001741Y003387D01*
X001892Y003387D01*
X001892Y002968D01*
X001968Y002968D01*
X001968Y003387D01*
X002119Y003387D01*
X002387Y003119D01*
X002387Y002968D01*
X001968Y002968D01*
X001968Y002892D01*
X002387Y002892D01*
X002387Y002741D01*
X002119Y002473D01*
X001968Y002473D01*
X001968Y002892D01*
X001892Y002892D01*
X001892Y002473D01*
X001741Y002473D01*
X001892Y002563D02*
X001968Y002563D01*
X001968Y002682D02*
X001892Y002682D01*
X001892Y002800D02*
X001968Y002800D01*
X001968Y002919D02*
X002892Y002919D01*
X002892Y002892D02*
X002473Y002892D01*
X002473Y002741D01*
X002741Y002473D01*
X002892Y002473D01*
X002892Y002892D01*
X002892Y002968D01*
X002473Y002968D01*
X002473Y003119D01*
X002741Y003387D01*
X002892Y003387D01*
X002892Y002968D01*
X002968Y002968D01*
X002968Y003387D01*
X003119Y003387D01*
X003387Y003119D01*
X003387Y002968D01*
X002968Y002968D01*
X002968Y002892D01*
X003387Y002892D01*
X003387Y002741D01*
X003119Y002473D01*
X002968Y002473D01*
X002968Y002892D01*
X002892Y002892D01*
X002968Y002919D02*
X004102Y002919D01*
X003984Y003037D02*
X003387Y003037D01*
X003351Y003156D02*
X003865Y003156D01*
X003747Y003274D02*
X003232Y003274D01*
X003157Y003511D02*
X003510Y003511D01*
X003628Y003393D02*
X000590Y003393D01*
X000590Y003511D02*
X001703Y003511D01*
X001584Y003630D02*
X000590Y003630D01*
X000590Y003748D02*
X001473Y003748D01*
X001473Y003867D02*
X000590Y003867D01*
X000590Y003985D02*
X001473Y003985D01*
X001473Y004104D02*
X000590Y004104D01*
X000590Y004222D02*
X001576Y004222D01*
X001694Y004341D02*
X000590Y004341D01*
X000590Y004459D02*
X002120Y004459D01*
X002224Y004578D02*
X002238Y004578D01*
X002342Y004696D02*
X002518Y004696D01*
X002473Y004815D02*
X002387Y004815D01*
X002387Y004933D02*
X002473Y004933D01*
X002473Y005052D02*
X002391Y005052D01*
X002509Y005170D02*
X002524Y005170D01*
X001636Y004578D02*
X000590Y004578D01*
X000590Y004696D02*
X001518Y004696D01*
X001473Y004815D02*
X000590Y004815D01*
X000590Y004933D02*
X001473Y004933D01*
X001473Y005052D02*
X000590Y005052D01*
X000590Y005170D02*
X001524Y005170D01*
X002443Y004104D02*
X002473Y004104D01*
X002473Y003985D02*
X002387Y003985D01*
X002387Y003867D02*
X002473Y003867D01*
X002473Y003748D02*
X002387Y003748D01*
X002276Y003630D02*
X002584Y003630D01*
X002703Y003511D02*
X002157Y003511D01*
X002232Y003274D02*
X002628Y003274D01*
X002509Y003156D02*
X002351Y003156D01*
X002387Y003037D02*
X002473Y003037D01*
X002473Y002800D02*
X002387Y002800D01*
X002328Y002682D02*
X002532Y002682D01*
X002651Y002563D02*
X002209Y002563D01*
X001892Y002919D02*
X000590Y002919D01*
X000590Y003037D02*
X001473Y003037D01*
X001509Y003156D02*
X000590Y003156D01*
X000590Y003274D02*
X001628Y003274D01*
X001892Y003274D02*
X001968Y003274D01*
X001968Y003156D02*
X001892Y003156D01*
X001892Y003037D02*
X001968Y003037D01*
X001473Y002800D02*
X000590Y002800D01*
X000590Y002682D02*
X001532Y002682D01*
X002892Y002682D02*
X002968Y002682D01*
X002968Y002800D02*
X002892Y002800D01*
X002892Y002563D02*
X002968Y002563D01*
X003209Y002563D02*
X004458Y002563D01*
X004339Y002682D02*
X003328Y002682D01*
X003387Y002800D02*
X004221Y002800D01*
X003391Y003630D02*
X003276Y003630D01*
X002968Y003274D02*
X002892Y003274D01*
X002892Y003156D02*
X002968Y003156D01*
X002968Y003037D02*
X002892Y003037D01*
X000590Y001141D02*
X006464Y001141D01*
X006430Y001430D02*
X006680Y001430D01*
X006896Y001141D02*
X018940Y001141D01*
X018940Y001023D02*
X000590Y001023D01*
X000905Y000904D02*
X018455Y000904D01*
X018380Y000786D02*
X000980Y000786D01*
X000997Y000667D02*
X018363Y000667D01*
X018905Y000904D02*
X018940Y000904D01*
X018940Y001497D02*
X014836Y001497D01*
X014954Y001615D02*
X018940Y001615D01*
X016151Y002563D02*
X015902Y002563D01*
X016021Y002682D02*
X016032Y002682D01*
X016084Y003630D02*
X015969Y003630D01*
X015917Y004578D02*
X016136Y004578D01*
X010990Y006829D02*
X010870Y006829D01*
X010870Y006711D02*
X009885Y006711D01*
X008975Y006711D02*
X007990Y006711D01*
X007990Y006825D02*
X008385Y006825D01*
X008385Y007042D01*
X008374Y007082D01*
X008353Y007119D01*
X008324Y007149D01*
X008287Y007170D01*
X008246Y007181D01*
X007990Y007181D01*
X007990Y006825D01*
X007990Y006829D02*
X007870Y006829D01*
X007870Y006711D02*
X007460Y006711D01*
X007460Y006829D02*
X007475Y006829D01*
X007460Y006948D02*
X007475Y006948D01*
X007460Y007066D02*
X007481Y007066D01*
X007460Y007185D02*
X009086Y007185D01*
X008975Y007066D02*
X008379Y007066D01*
X008385Y006948D02*
X008975Y006948D01*
X008975Y006829D02*
X008385Y006829D01*
X008385Y006592D02*
X008975Y006592D01*
X008975Y006474D02*
X008381Y006474D01*
X008385Y006355D02*
X008975Y006355D01*
X008975Y006237D02*
X008385Y006237D01*
X007990Y006948D02*
X007870Y006948D01*
X007870Y007066D02*
X007990Y007066D01*
X007460Y007303D02*
X008968Y007303D01*
X008851Y007422D02*
X007460Y007422D01*
X007460Y007540D02*
X008816Y007540D01*
X008816Y007659D02*
X007460Y007659D01*
X007460Y007777D02*
X007475Y007777D01*
X007460Y007896D02*
X007475Y007896D01*
X006430Y008180D02*
X006180Y008180D01*
X007460Y006592D02*
X007475Y006592D01*
X006758Y005763D02*
X006651Y005763D01*
X006240Y005763D02*
X006120Y005763D01*
X006120Y005881D02*
X006240Y005881D01*
X006120Y006000D02*
X005200Y006000D01*
X005792Y005407D02*
X007114Y005407D01*
X007232Y005289D02*
X005911Y005289D01*
X006120Y005644D02*
X006240Y005644D01*
X006930Y004930D02*
X007180Y004680D01*
X007534Y004326D01*
X007784Y004326D01*
X008281Y004326D01*
X008281Y004070D02*
X007540Y004070D01*
X007290Y004070D01*
X007180Y004180D01*
X006930Y004430D01*
X006680Y004430D01*
X006930Y004430D02*
X007180Y004180D01*
X006930Y004430D01*
X007180Y004680D02*
X007430Y004430D01*
X006930Y003930D02*
X007046Y003814D01*
X008281Y003814D01*
X008281Y003558D02*
X007058Y003558D01*
X006930Y003430D01*
X006680Y003430D02*
X006180Y003430D01*
X006180Y002930D02*
X006430Y002930D01*
X006930Y002930D02*
X007180Y003180D01*
X007302Y003302D01*
X007552Y003302D01*
X008281Y003302D01*
X005930Y002930D02*
X005680Y003180D01*
X010870Y006948D02*
X010990Y006948D01*
X010990Y007066D02*
X010870Y007066D01*
X011043Y007422D02*
X009528Y007422D01*
X008798Y007777D02*
X008385Y007777D01*
X008445Y007896D02*
X008798Y007896D01*
X008798Y008014D02*
X008564Y008014D01*
X008682Y008133D02*
X008798Y008133D01*
X008801Y008251D02*
X008828Y008251D01*
X007455Y010621D02*
X005385Y010621D01*
X005067Y010147D02*
X003090Y010147D01*
X002951Y010029D02*
X005185Y010029D01*
X004073Y010740D02*
X003063Y010740D01*
X002887Y010858D02*
X004117Y010858D01*
X004222Y010977D02*
X002784Y010977D01*
X003038Y011095D02*
X004306Y011095D01*
X004326Y011087D02*
X004392Y011074D01*
X004392Y011392D01*
X004074Y011392D01*
X004087Y011326D01*
X004114Y011261D01*
X004153Y011203D01*
X004203Y011153D01*
X004261Y011114D01*
X004326Y011087D01*
X004392Y011095D02*
X004468Y011095D01*
X004468Y011214D02*
X004392Y011214D01*
X004392Y011332D02*
X004468Y011332D01*
X004468Y011451D02*
X005489Y011451D01*
X005489Y011569D02*
X004759Y011569D01*
X004677Y011688D02*
X005573Y011688D01*
X006120Y011688D02*
X006240Y011688D01*
X006240Y011569D02*
X006120Y011569D01*
X006120Y011451D02*
X006240Y011451D01*
X006240Y011095D02*
X006120Y011095D01*
X006120Y010977D02*
X006240Y010977D01*
X006240Y010858D02*
X006120Y010858D01*
X006787Y011688D02*
X013785Y011688D01*
X013908Y011806D02*
X002987Y011806D01*
X002966Y011821D02*
X002902Y011853D01*
X002834Y011876D01*
X002763Y011887D01*
X002468Y011887D01*
X002468Y011468D01*
X003183Y011468D01*
X003172Y011537D01*
X003150Y011605D01*
X003118Y011669D01*
X003075Y011728D01*
X003024Y011778D01*
X002966Y011821D01*
X003104Y011688D02*
X004183Y011688D01*
X004203Y011707D02*
X004153Y011657D01*
X004114Y011599D01*
X004087Y011534D01*
X004074Y011468D01*
X004392Y011468D01*
X004392Y011786D01*
X004326Y011773D01*
X004261Y011746D01*
X004203Y011707D01*
X004101Y011569D02*
X003162Y011569D01*
X003174Y011332D02*
X004086Y011332D01*
X004145Y011214D02*
X003129Y011214D01*
X002468Y011451D02*
X004392Y011451D01*
X004392Y011569D02*
X004468Y011569D01*
X004468Y011688D02*
X004392Y011688D01*
X002468Y011688D02*
X002392Y011688D01*
X002392Y011806D02*
X002468Y011806D01*
X002468Y011569D02*
X002392Y011569D01*
X012930Y010430D02*
X013180Y010430D01*
X015894Y009555D02*
X016159Y009555D01*
X016041Y009673D02*
X016012Y009673D01*
X016701Y009555D02*
X017159Y009555D01*
X017041Y009673D02*
X016819Y009673D01*
X016887Y009792D02*
X016973Y009792D01*
X017171Y009318D02*
X016689Y009318D01*
X016807Y009199D02*
X017053Y009199D01*
X016973Y009081D02*
X016887Y009081D01*
M02*
