G75*
G70*
%OFA0B0*%
%FSLAX24Y24*%
%IPPOS*%
%LPD*%
%AMOC8*
5,1,8,0,0,1.08239X$1,22.5*
%
%ADD10C,0.0000*%
%ADD11C,0.0160*%
%ADD12R,0.0390X0.0120*%
%ADD13R,0.0197X0.0394*%
%ADD14R,0.0591X0.0512*%
%ADD15R,0.0630X0.0512*%
D10*
X000430Y000430D02*
X000430Y031926D01*
X039800Y031926D01*
X039800Y000430D01*
X000430Y000430D01*
X000523Y000680D02*
X000525Y000705D01*
X000531Y000729D01*
X000540Y000751D01*
X000553Y000772D01*
X000569Y000791D01*
X000588Y000807D01*
X000609Y000820D01*
X000631Y000829D01*
X000655Y000835D01*
X000680Y000837D01*
X000705Y000835D01*
X000729Y000829D01*
X000751Y000820D01*
X000772Y000807D01*
X000791Y000791D01*
X000807Y000772D01*
X000820Y000751D01*
X000829Y000729D01*
X000835Y000705D01*
X000837Y000680D01*
X000835Y000655D01*
X000829Y000631D01*
X000820Y000609D01*
X000807Y000588D01*
X000791Y000569D01*
X000772Y000553D01*
X000751Y000540D01*
X000729Y000531D01*
X000705Y000525D01*
X000680Y000523D01*
X000655Y000525D01*
X000631Y000531D01*
X000609Y000540D01*
X000588Y000553D01*
X000569Y000569D01*
X000553Y000588D01*
X000540Y000609D01*
X000531Y000631D01*
X000525Y000655D01*
X000523Y000680D01*
X000523Y012180D02*
X000525Y012205D01*
X000531Y012229D01*
X000540Y012251D01*
X000553Y012272D01*
X000569Y012291D01*
X000588Y012307D01*
X000609Y012320D01*
X000631Y012329D01*
X000655Y012335D01*
X000680Y012337D01*
X000705Y012335D01*
X000729Y012329D01*
X000751Y012320D01*
X000772Y012307D01*
X000791Y012291D01*
X000807Y012272D01*
X000820Y012251D01*
X000829Y012229D01*
X000835Y012205D01*
X000837Y012180D01*
X000835Y012155D01*
X000829Y012131D01*
X000820Y012109D01*
X000807Y012088D01*
X000791Y012069D01*
X000772Y012053D01*
X000751Y012040D01*
X000729Y012031D01*
X000705Y012025D01*
X000680Y012023D01*
X000655Y012025D01*
X000631Y012031D01*
X000609Y012040D01*
X000588Y012053D01*
X000569Y012069D01*
X000553Y012088D01*
X000540Y012109D01*
X000531Y012131D01*
X000525Y012155D01*
X000523Y012180D01*
X018523Y012180D02*
X018525Y012205D01*
X018531Y012229D01*
X018540Y012251D01*
X018553Y012272D01*
X018569Y012291D01*
X018588Y012307D01*
X018609Y012320D01*
X018631Y012329D01*
X018655Y012335D01*
X018680Y012337D01*
X018705Y012335D01*
X018729Y012329D01*
X018751Y012320D01*
X018772Y012307D01*
X018791Y012291D01*
X018807Y012272D01*
X018820Y012251D01*
X018829Y012229D01*
X018835Y012205D01*
X018837Y012180D01*
X018835Y012155D01*
X018829Y012131D01*
X018820Y012109D01*
X018807Y012088D01*
X018791Y012069D01*
X018772Y012053D01*
X018751Y012040D01*
X018729Y012031D01*
X018705Y012025D01*
X018680Y012023D01*
X018655Y012025D01*
X018631Y012031D01*
X018609Y012040D01*
X018588Y012053D01*
X018569Y012069D01*
X018553Y012088D01*
X018540Y012109D01*
X018531Y012131D01*
X018525Y012155D01*
X018523Y012180D01*
X018523Y000680D02*
X018525Y000705D01*
X018531Y000729D01*
X018540Y000751D01*
X018553Y000772D01*
X018569Y000791D01*
X018588Y000807D01*
X018609Y000820D01*
X018631Y000829D01*
X018655Y000835D01*
X018680Y000837D01*
X018705Y000835D01*
X018729Y000829D01*
X018751Y000820D01*
X018772Y000807D01*
X018791Y000791D01*
X018807Y000772D01*
X018820Y000751D01*
X018829Y000729D01*
X018835Y000705D01*
X018837Y000680D01*
X018835Y000655D01*
X018829Y000631D01*
X018820Y000609D01*
X018807Y000588D01*
X018791Y000569D01*
X018772Y000553D01*
X018751Y000540D01*
X018729Y000531D01*
X018705Y000525D01*
X018680Y000523D01*
X018655Y000525D01*
X018631Y000531D01*
X018609Y000540D01*
X018588Y000553D01*
X018569Y000569D01*
X018553Y000588D01*
X018540Y000609D01*
X018531Y000631D01*
X018525Y000655D01*
X018523Y000680D01*
D11*
X019180Y000180D02*
X000180Y000180D01*
X000180Y012680D01*
X019180Y012680D01*
X019180Y000180D01*
D12*
X010579Y002023D03*
X010579Y002278D03*
X010579Y002534D03*
X010579Y002790D03*
X010579Y003046D03*
X010579Y003302D03*
X010579Y003558D03*
X010579Y003814D03*
X010579Y004070D03*
X010579Y004326D03*
X010579Y004582D03*
X010579Y004837D03*
X008281Y004837D03*
X008281Y004582D03*
X008281Y004326D03*
X008281Y004070D03*
X008281Y003814D03*
X008281Y003558D03*
X008281Y003302D03*
X008281Y003046D03*
X008281Y002790D03*
X008281Y002534D03*
X008281Y002278D03*
X008281Y002023D03*
D13*
X009056Y007958D03*
X009804Y007958D03*
X009804Y008902D03*
X009430Y008902D03*
X009056Y008902D03*
D14*
X007930Y008765D03*
X007930Y008095D03*
X007930Y006765D03*
X007930Y006095D03*
X009430Y006095D03*
X009430Y006765D03*
X010930Y006765D03*
X010930Y006095D03*
X010930Y008095D03*
X010930Y008765D03*
D15*
X013180Y010306D03*
X013180Y011054D03*
X014430Y011054D03*
X014430Y010306D03*
X007930Y010306D03*
X007930Y011054D03*
X006180Y008804D03*
X006180Y008056D03*
X006180Y006804D03*
X006180Y006056D03*
M02*
