G75*
G70*
%OFA0B0*%
%FSLAX24Y24*%
%IPPOS*%
%LPD*%
%AMOC8*
5,1,8,0,0,1.08239X$1,22.5*
%
%ADD10C,0.0000*%
%ADD11C,0.0160*%
%ADD12OC8,0.0594*%
%ADD13C,0.0560*%
%ADD14C,0.0594*%
D10*
X000430Y000430D02*
X000430Y031926D01*
X039800Y031926D01*
X039800Y000430D01*
X000430Y000430D01*
X000523Y000680D02*
X000525Y000705D01*
X000531Y000729D01*
X000540Y000751D01*
X000553Y000772D01*
X000569Y000791D01*
X000588Y000807D01*
X000609Y000820D01*
X000631Y000829D01*
X000655Y000835D01*
X000680Y000837D01*
X000705Y000835D01*
X000729Y000829D01*
X000751Y000820D01*
X000772Y000807D01*
X000791Y000791D01*
X000807Y000772D01*
X000820Y000751D01*
X000829Y000729D01*
X000835Y000705D01*
X000837Y000680D01*
X000835Y000655D01*
X000829Y000631D01*
X000820Y000609D01*
X000807Y000588D01*
X000791Y000569D01*
X000772Y000553D01*
X000751Y000540D01*
X000729Y000531D01*
X000705Y000525D01*
X000680Y000523D01*
X000655Y000525D01*
X000631Y000531D01*
X000609Y000540D01*
X000588Y000553D01*
X000569Y000569D01*
X000553Y000588D01*
X000540Y000609D01*
X000531Y000631D01*
X000525Y000655D01*
X000523Y000680D01*
X000523Y012180D02*
X000525Y012205D01*
X000531Y012229D01*
X000540Y012251D01*
X000553Y012272D01*
X000569Y012291D01*
X000588Y012307D01*
X000609Y012320D01*
X000631Y012329D01*
X000655Y012335D01*
X000680Y012337D01*
X000705Y012335D01*
X000729Y012329D01*
X000751Y012320D01*
X000772Y012307D01*
X000791Y012291D01*
X000807Y012272D01*
X000820Y012251D01*
X000829Y012229D01*
X000835Y012205D01*
X000837Y012180D01*
X000835Y012155D01*
X000829Y012131D01*
X000820Y012109D01*
X000807Y012088D01*
X000791Y012069D01*
X000772Y012053D01*
X000751Y012040D01*
X000729Y012031D01*
X000705Y012025D01*
X000680Y012023D01*
X000655Y012025D01*
X000631Y012031D01*
X000609Y012040D01*
X000588Y012053D01*
X000569Y012069D01*
X000553Y012088D01*
X000540Y012109D01*
X000531Y012131D01*
X000525Y012155D01*
X000523Y012180D01*
X018523Y012180D02*
X018525Y012205D01*
X018531Y012229D01*
X018540Y012251D01*
X018553Y012272D01*
X018569Y012291D01*
X018588Y012307D01*
X018609Y012320D01*
X018631Y012329D01*
X018655Y012335D01*
X018680Y012337D01*
X018705Y012335D01*
X018729Y012329D01*
X018751Y012320D01*
X018772Y012307D01*
X018791Y012291D01*
X018807Y012272D01*
X018820Y012251D01*
X018829Y012229D01*
X018835Y012205D01*
X018837Y012180D01*
X018835Y012155D01*
X018829Y012131D01*
X018820Y012109D01*
X018807Y012088D01*
X018791Y012069D01*
X018772Y012053D01*
X018751Y012040D01*
X018729Y012031D01*
X018705Y012025D01*
X018680Y012023D01*
X018655Y012025D01*
X018631Y012031D01*
X018609Y012040D01*
X018588Y012053D01*
X018569Y012069D01*
X018553Y012088D01*
X018540Y012109D01*
X018531Y012131D01*
X018525Y012155D01*
X018523Y012180D01*
X018523Y000680D02*
X018525Y000705D01*
X018531Y000729D01*
X018540Y000751D01*
X018553Y000772D01*
X018569Y000791D01*
X018588Y000807D01*
X018609Y000820D01*
X018631Y000829D01*
X018655Y000835D01*
X018680Y000837D01*
X018705Y000835D01*
X018729Y000829D01*
X018751Y000820D01*
X018772Y000807D01*
X018791Y000791D01*
X018807Y000772D01*
X018820Y000751D01*
X018829Y000729D01*
X018835Y000705D01*
X018837Y000680D01*
X018835Y000655D01*
X018829Y000631D01*
X018820Y000609D01*
X018807Y000588D01*
X018791Y000569D01*
X018772Y000553D01*
X018751Y000540D01*
X018729Y000531D01*
X018705Y000525D01*
X018680Y000523D01*
X018655Y000525D01*
X018631Y000531D01*
X018609Y000540D01*
X018588Y000553D01*
X018569Y000569D01*
X018553Y000588D01*
X018540Y000609D01*
X018531Y000631D01*
X018525Y000655D01*
X018523Y000680D01*
D11*
X019180Y000180D02*
X000180Y000180D01*
X000180Y012680D01*
X019180Y012680D01*
X019180Y000180D01*
X018323Y000751D02*
X018377Y000882D01*
X018478Y000983D01*
X018609Y001037D01*
X018751Y001037D01*
X018882Y000983D01*
X018900Y000966D01*
X018900Y011894D01*
X018882Y011877D01*
X018751Y011823D01*
X018609Y011823D01*
X018478Y011877D01*
X018377Y011978D01*
X018323Y012109D01*
X018323Y012251D01*
X018377Y012382D01*
X018394Y012400D01*
X000966Y012400D01*
X000983Y012382D01*
X001037Y012251D01*
X001037Y012109D01*
X000983Y011978D01*
X000882Y011877D01*
X000751Y011823D01*
X000630Y011823D01*
X000630Y001037D01*
X000751Y001037D01*
X000882Y000983D01*
X000983Y000882D01*
X001037Y000751D01*
X001037Y000630D01*
X018323Y000630D01*
X018323Y000751D01*
X018323Y000747D02*
X001037Y000747D01*
X000960Y000906D02*
X018400Y000906D01*
X018900Y001064D02*
X000630Y001064D01*
X000630Y001223D02*
X018900Y001223D01*
X018900Y001381D02*
X000630Y001381D01*
X000630Y001540D02*
X018900Y001540D01*
X018900Y001698D02*
X000630Y001698D01*
X000630Y001857D02*
X018900Y001857D01*
X018900Y002015D02*
X000630Y002015D01*
X000630Y002174D02*
X018900Y002174D01*
X018900Y002332D02*
X000630Y002332D01*
X000630Y002491D02*
X001695Y002491D01*
X001732Y002453D02*
X001453Y002732D01*
X001453Y002912D01*
X001912Y002912D01*
X001912Y002948D01*
X001453Y002948D01*
X001453Y003128D01*
X001732Y003407D01*
X001912Y003407D01*
X001912Y002948D01*
X001948Y002948D01*
X001948Y003407D01*
X002128Y003407D01*
X002407Y003128D01*
X002407Y002948D01*
X001948Y002948D01*
X001948Y002912D01*
X002407Y002912D01*
X002407Y002732D01*
X002128Y002453D01*
X001948Y002453D01*
X001948Y002912D01*
X001912Y002912D01*
X001912Y002453D01*
X001732Y002453D01*
X001912Y002491D02*
X001948Y002491D01*
X001948Y002649D02*
X001912Y002649D01*
X001912Y002808D02*
X001948Y002808D01*
X001948Y002966D02*
X001912Y002966D01*
X001912Y003125D02*
X001948Y003125D01*
X001948Y003283D02*
X001912Y003283D01*
X001724Y003433D02*
X002136Y003433D01*
X002427Y003724D01*
X002427Y004136D01*
X002136Y004427D01*
X001724Y004427D01*
X001433Y004136D01*
X001433Y003724D01*
X001724Y003433D01*
X001716Y003442D02*
X000630Y003442D01*
X000630Y003600D02*
X001557Y003600D01*
X001433Y003759D02*
X000630Y003759D01*
X000630Y003917D02*
X001433Y003917D01*
X001433Y004076D02*
X000630Y004076D01*
X000630Y004234D02*
X001531Y004234D01*
X001690Y004393D02*
X000630Y004393D01*
X000630Y004551D02*
X001606Y004551D01*
X001724Y004433D02*
X002136Y004433D01*
X002427Y004724D01*
X002427Y005136D01*
X002136Y005427D01*
X001724Y005427D01*
X001433Y005136D01*
X001433Y004724D01*
X001724Y004433D01*
X001448Y004710D02*
X000630Y004710D01*
X000630Y004868D02*
X001433Y004868D01*
X001433Y005027D02*
X000630Y005027D01*
X000630Y005185D02*
X001482Y005185D01*
X001641Y005344D02*
X000630Y005344D01*
X000630Y005502D02*
X001655Y005502D01*
X001724Y005433D02*
X002136Y005433D01*
X002427Y005724D01*
X002427Y006136D01*
X002136Y006427D01*
X001724Y006427D01*
X001433Y006136D01*
X001433Y005724D01*
X001724Y005433D01*
X001497Y005661D02*
X000630Y005661D01*
X000630Y005819D02*
X001433Y005819D01*
X001433Y005978D02*
X000630Y005978D01*
X000630Y006136D02*
X001433Y006136D01*
X001592Y006295D02*
X000630Y006295D01*
X000630Y006453D02*
X001704Y006453D01*
X001724Y006433D02*
X002136Y006433D01*
X002427Y006724D01*
X002427Y007136D01*
X002136Y007427D01*
X001724Y007427D01*
X001433Y007136D01*
X001433Y006724D01*
X001724Y006433D01*
X001546Y006612D02*
X000630Y006612D01*
X000630Y006770D02*
X001433Y006770D01*
X001433Y006929D02*
X000630Y006929D01*
X000630Y007087D02*
X001433Y007087D01*
X001543Y007246D02*
X000630Y007246D01*
X000630Y007404D02*
X001701Y007404D01*
X002159Y007404D02*
X002701Y007404D01*
X002724Y007427D02*
X002433Y007136D01*
X002433Y006724D01*
X002724Y006433D01*
X003136Y006433D01*
X003427Y006724D01*
X003427Y007136D01*
X003136Y007427D01*
X002724Y007427D01*
X002543Y007246D02*
X002317Y007246D01*
X002427Y007087D02*
X002433Y007087D01*
X002427Y006929D02*
X002433Y006929D01*
X002427Y006770D02*
X002433Y006770D01*
X002546Y006612D02*
X002314Y006612D01*
X002156Y006453D02*
X002704Y006453D01*
X002724Y006427D02*
X002433Y006136D01*
X002433Y005724D01*
X002724Y005433D01*
X003136Y005433D01*
X003427Y005724D01*
X003427Y006136D01*
X003136Y006427D01*
X002724Y006427D01*
X002592Y006295D02*
X002268Y006295D01*
X002427Y006136D02*
X002433Y006136D01*
X002427Y005978D02*
X002433Y005978D01*
X002427Y005819D02*
X002433Y005819D01*
X002497Y005661D02*
X002363Y005661D01*
X002205Y005502D02*
X002655Y005502D01*
X002724Y005427D02*
X002433Y005136D01*
X002433Y004724D01*
X002724Y004433D01*
X003136Y004433D01*
X003427Y004724D01*
X003427Y005136D01*
X003136Y005427D01*
X002724Y005427D01*
X002641Y005344D02*
X002219Y005344D01*
X002378Y005185D02*
X002482Y005185D01*
X002433Y005027D02*
X002427Y005027D01*
X002427Y004868D02*
X002433Y004868D01*
X002448Y004710D02*
X002412Y004710D01*
X002254Y004551D02*
X002606Y004551D01*
X002724Y004427D02*
X002433Y004136D01*
X002433Y003724D01*
X002724Y003433D01*
X003136Y003433D01*
X003427Y003724D01*
X003427Y004136D01*
X003136Y004427D01*
X002724Y004427D01*
X002690Y004393D02*
X002170Y004393D01*
X002329Y004234D02*
X002531Y004234D01*
X002433Y004076D02*
X002427Y004076D01*
X002427Y003917D02*
X002433Y003917D01*
X002427Y003759D02*
X002433Y003759D01*
X002557Y003600D02*
X002303Y003600D01*
X002144Y003442D02*
X002716Y003442D01*
X002732Y003407D02*
X002453Y003128D01*
X002453Y002948D01*
X002912Y002948D01*
X002912Y002912D01*
X002453Y002912D01*
X002453Y002732D01*
X002732Y002453D01*
X002912Y002453D01*
X002912Y002912D01*
X002948Y002912D01*
X002948Y002948D01*
X002912Y002948D01*
X002912Y003407D01*
X002732Y003407D01*
X002609Y003283D02*
X002251Y003283D01*
X002407Y003125D02*
X002453Y003125D01*
X002453Y002966D02*
X002407Y002966D01*
X002407Y002808D02*
X002453Y002808D01*
X002537Y002649D02*
X002323Y002649D01*
X002165Y002491D02*
X002695Y002491D01*
X002912Y002491D02*
X002948Y002491D01*
X002948Y002453D02*
X003128Y002453D01*
X003407Y002732D01*
X003407Y002912D01*
X002948Y002912D01*
X002948Y002453D01*
X002948Y002649D02*
X002912Y002649D01*
X002912Y002808D02*
X002948Y002808D01*
X002948Y002948D02*
X003407Y002948D01*
X003407Y003128D01*
X003128Y003407D01*
X002948Y003407D01*
X002948Y002948D01*
X002948Y002966D02*
X002912Y002966D01*
X002912Y003125D02*
X002948Y003125D01*
X002948Y003283D02*
X002912Y003283D01*
X003144Y003442D02*
X016216Y003442D01*
X016224Y003433D02*
X016636Y003433D01*
X016927Y003724D01*
X016927Y004136D01*
X016636Y004427D01*
X016224Y004427D01*
X015933Y004136D01*
X015933Y003724D01*
X016224Y003433D01*
X016224Y003427D02*
X015933Y003136D01*
X015933Y002724D01*
X016224Y002433D01*
X016636Y002433D01*
X016927Y002724D01*
X016927Y003136D01*
X016636Y003427D01*
X016224Y003427D01*
X016080Y003283D02*
X003251Y003283D01*
X003407Y003125D02*
X015933Y003125D01*
X015933Y002966D02*
X003407Y002966D01*
X003407Y002808D02*
X015933Y002808D01*
X016008Y002649D02*
X003323Y002649D01*
X003165Y002491D02*
X016167Y002491D01*
X016693Y002491D02*
X017195Y002491D01*
X017232Y002453D02*
X016953Y002732D01*
X016953Y002912D01*
X017412Y002912D01*
X017412Y002948D01*
X016953Y002948D01*
X016953Y003128D01*
X017232Y003407D01*
X017412Y003407D01*
X017412Y002948D01*
X017448Y002948D01*
X017448Y003407D01*
X017628Y003407D01*
X017907Y003128D01*
X017907Y002948D01*
X017448Y002948D01*
X017448Y002912D01*
X017907Y002912D01*
X017907Y002732D01*
X017628Y002453D01*
X017448Y002453D01*
X017448Y002912D01*
X017412Y002912D01*
X017412Y002453D01*
X017232Y002453D01*
X017412Y002491D02*
X017448Y002491D01*
X017448Y002649D02*
X017412Y002649D01*
X017412Y002808D02*
X017448Y002808D01*
X017448Y002966D02*
X017412Y002966D01*
X017412Y003125D02*
X017448Y003125D01*
X017448Y003283D02*
X017412Y003283D01*
X017412Y003453D02*
X017412Y003912D01*
X016953Y003912D01*
X016953Y003732D01*
X017232Y003453D01*
X017412Y003453D01*
X017448Y003453D02*
X017628Y003453D01*
X017907Y003732D01*
X017907Y003912D01*
X017448Y003912D01*
X017448Y003948D01*
X017412Y003948D01*
X017412Y003912D01*
X017448Y003912D01*
X017448Y003453D01*
X017448Y003600D02*
X017412Y003600D01*
X017412Y003759D02*
X017448Y003759D01*
X017448Y003917D02*
X018900Y003917D01*
X018900Y003759D02*
X017907Y003759D01*
X017907Y003948D02*
X017448Y003948D01*
X017448Y004407D01*
X017628Y004407D01*
X017907Y004128D01*
X017907Y003948D01*
X017907Y004076D02*
X018900Y004076D01*
X018900Y004234D02*
X017800Y004234D01*
X017642Y004393D02*
X018900Y004393D01*
X018900Y004551D02*
X017725Y004551D01*
X017628Y004453D02*
X017907Y004732D01*
X017907Y004912D01*
X017448Y004912D01*
X017448Y004948D01*
X017412Y004948D01*
X017412Y004912D01*
X016953Y004912D01*
X016953Y004732D01*
X017232Y004453D01*
X017412Y004453D01*
X017412Y004912D01*
X017448Y004912D01*
X017448Y004453D01*
X017628Y004453D01*
X017448Y004393D02*
X017412Y004393D01*
X017412Y004407D02*
X017232Y004407D01*
X016953Y004128D01*
X016953Y003948D01*
X017412Y003948D01*
X017412Y004407D01*
X017412Y004551D02*
X017448Y004551D01*
X017448Y004710D02*
X017412Y004710D01*
X017412Y004868D02*
X017448Y004868D01*
X017448Y004948D02*
X017907Y004948D01*
X017907Y005128D01*
X017628Y005407D01*
X017448Y005407D01*
X017448Y004948D01*
X017412Y004948D02*
X017412Y005407D01*
X017232Y005407D01*
X016953Y005128D01*
X016953Y004948D01*
X017412Y004948D01*
X017412Y005027D02*
X017448Y005027D01*
X017448Y005185D02*
X017412Y005185D01*
X017412Y005344D02*
X017448Y005344D01*
X017448Y005453D02*
X017628Y005453D01*
X017907Y005732D01*
X017907Y005912D01*
X017448Y005912D01*
X017448Y005948D01*
X017412Y005948D01*
X017412Y005912D01*
X016953Y005912D01*
X016953Y005732D01*
X017232Y005453D01*
X017412Y005453D01*
X017412Y005912D01*
X017448Y005912D01*
X017448Y005453D01*
X017448Y005502D02*
X017412Y005502D01*
X017412Y005661D02*
X017448Y005661D01*
X017448Y005819D02*
X017412Y005819D01*
X017412Y005948D02*
X016953Y005948D01*
X016953Y006128D01*
X017232Y006407D01*
X017412Y006407D01*
X017412Y005948D01*
X017412Y005978D02*
X017448Y005978D01*
X017448Y005948D02*
X017448Y006407D01*
X017628Y006407D01*
X017907Y006128D01*
X017907Y005948D01*
X017448Y005948D01*
X017448Y006136D02*
X017412Y006136D01*
X017412Y006295D02*
X017448Y006295D01*
X017448Y006453D02*
X017628Y006453D01*
X017907Y006732D01*
X017907Y006912D01*
X017448Y006912D01*
X017448Y006948D01*
X017412Y006948D01*
X017412Y006912D01*
X016953Y006912D01*
X016953Y006732D01*
X017232Y006453D01*
X017412Y006453D01*
X017412Y006912D01*
X017448Y006912D01*
X017448Y006453D01*
X017448Y006612D02*
X017412Y006612D01*
X017412Y006770D02*
X017448Y006770D01*
X017448Y006929D02*
X018900Y006929D01*
X018900Y007087D02*
X017907Y007087D01*
X017907Y007128D02*
X017628Y007407D01*
X017448Y007407D01*
X017448Y006948D01*
X017907Y006948D01*
X017907Y007128D01*
X017789Y007246D02*
X018900Y007246D01*
X018900Y007404D02*
X017630Y007404D01*
X017628Y007453D02*
X017907Y007732D01*
X017907Y007912D01*
X017448Y007912D01*
X017448Y007948D01*
X017412Y007948D01*
X017412Y007912D01*
X016953Y007912D01*
X016953Y007732D01*
X017232Y007453D01*
X017412Y007453D01*
X017412Y007912D01*
X017448Y007912D01*
X017448Y007453D01*
X017628Y007453D01*
X017737Y007563D02*
X018900Y007563D01*
X018900Y007721D02*
X017895Y007721D01*
X017907Y007880D02*
X018900Y007880D01*
X018900Y008038D02*
X017907Y008038D01*
X017907Y008128D02*
X017628Y008407D01*
X017448Y008407D01*
X017448Y007948D01*
X017907Y007948D01*
X017907Y008128D01*
X017838Y008197D02*
X018900Y008197D01*
X018900Y008355D02*
X017679Y008355D01*
X017628Y008453D02*
X017907Y008732D01*
X017907Y008912D01*
X017448Y008912D01*
X017448Y008948D01*
X017412Y008948D01*
X017412Y008912D01*
X016953Y008912D01*
X016953Y008732D01*
X017232Y008453D01*
X017412Y008453D01*
X017412Y008912D01*
X017448Y008912D01*
X017448Y008453D01*
X017628Y008453D01*
X017688Y008514D02*
X018900Y008514D01*
X018900Y008672D02*
X017846Y008672D01*
X017907Y008831D02*
X018900Y008831D01*
X018900Y008989D02*
X017907Y008989D01*
X017907Y008948D02*
X017907Y009128D01*
X017628Y009407D01*
X017448Y009407D01*
X017448Y008948D01*
X017907Y008948D01*
X017887Y009148D02*
X018900Y009148D01*
X018900Y009306D02*
X017728Y009306D01*
X017628Y009453D02*
X017907Y009732D01*
X017907Y009912D01*
X017448Y009912D01*
X017448Y009948D01*
X017412Y009948D01*
X017412Y009912D01*
X016953Y009912D01*
X016953Y009732D01*
X017232Y009453D01*
X017412Y009453D01*
X017412Y009912D01*
X017448Y009912D01*
X017448Y009453D01*
X017628Y009453D01*
X017639Y009465D02*
X018900Y009465D01*
X018900Y009623D02*
X017797Y009623D01*
X017907Y009782D02*
X018900Y009782D01*
X018900Y009940D02*
X017448Y009940D01*
X017448Y009948D02*
X017907Y009948D01*
X017907Y010128D01*
X017628Y010407D01*
X017448Y010407D01*
X017448Y009948D01*
X017412Y009948D02*
X017412Y010407D01*
X017232Y010407D01*
X016953Y010128D01*
X016953Y009948D01*
X017412Y009948D01*
X017412Y009940D02*
X016927Y009940D01*
X016927Y009782D02*
X016953Y009782D01*
X016927Y009724D02*
X016636Y009433D01*
X016224Y009433D01*
X015933Y009724D01*
X015933Y010136D01*
X016224Y010427D01*
X016636Y010427D01*
X016927Y010136D01*
X016927Y009724D01*
X016826Y009623D02*
X017063Y009623D01*
X017221Y009465D02*
X016667Y009465D01*
X016636Y009427D02*
X016224Y009427D01*
X015933Y009136D01*
X015933Y008724D01*
X016224Y008433D01*
X016636Y008433D01*
X016927Y008724D01*
X016927Y009136D01*
X016636Y009427D01*
X016757Y009306D02*
X017132Y009306D01*
X017232Y009407D02*
X016953Y009128D01*
X016953Y008948D01*
X017412Y008948D01*
X017412Y009407D01*
X017232Y009407D01*
X017412Y009465D02*
X017448Y009465D01*
X017448Y009623D02*
X017412Y009623D01*
X017412Y009782D02*
X017448Y009782D01*
X017448Y010099D02*
X017412Y010099D01*
X017412Y010257D02*
X017448Y010257D01*
X017777Y010257D02*
X018900Y010257D01*
X018900Y010099D02*
X017907Y010099D01*
X017083Y010257D02*
X016806Y010257D01*
X016927Y010099D02*
X016953Y010099D01*
X016647Y010416D02*
X018900Y010416D01*
X018900Y010574D02*
X015170Y010574D01*
X015190Y010525D02*
X015117Y010702D01*
X014982Y010837D01*
X014805Y010910D01*
X014055Y010910D01*
X013878Y010837D01*
X013743Y010702D01*
X013670Y010525D01*
X013670Y010335D01*
X013743Y010158D01*
X013878Y010023D01*
X014055Y009950D01*
X014805Y009950D01*
X014982Y010023D01*
X015117Y010158D01*
X015190Y010335D01*
X015190Y010525D01*
X015190Y010416D02*
X016213Y010416D01*
X016054Y010257D02*
X015158Y010257D01*
X015057Y010099D02*
X015933Y010099D01*
X015933Y009940D02*
X002842Y009940D01*
X002826Y009933D02*
X003008Y010009D01*
X003148Y010149D01*
X003149Y010150D01*
X004486Y010150D01*
X004589Y010193D01*
X005042Y010646D01*
X005546Y011150D01*
X013751Y011150D01*
X013878Y011023D01*
X014055Y010950D01*
X014805Y010950D01*
X014982Y011023D01*
X015117Y011158D01*
X015190Y011335D01*
X015190Y011525D01*
X018900Y011525D01*
X018900Y011367D02*
X015190Y011367D01*
X015190Y011525D02*
X015117Y011702D01*
X014982Y011837D01*
X014805Y011910D01*
X014055Y011910D01*
X013878Y011837D01*
X013751Y011710D01*
X005374Y011710D01*
X005271Y011667D01*
X004646Y011042D01*
X004314Y010710D01*
X003149Y010710D01*
X003148Y010711D01*
X003008Y010851D01*
X002826Y010927D01*
X002034Y010927D01*
X001852Y010851D01*
X001712Y010711D01*
X001636Y010529D01*
X001636Y010331D01*
X001712Y010149D01*
X001852Y010009D01*
X002034Y009933D01*
X002826Y009933D01*
X003098Y010099D02*
X013803Y010099D01*
X013702Y010257D02*
X004653Y010257D01*
X004811Y010416D02*
X013670Y010416D01*
X013690Y010574D02*
X004970Y010574D01*
X005128Y010733D02*
X013774Y010733D01*
X014009Y010891D02*
X005287Y010891D01*
X005445Y011050D02*
X013852Y011050D01*
X014430Y011430D02*
X007680Y011430D01*
X005430Y011430D01*
X004805Y010805D01*
X004430Y010430D01*
X002430Y010430D01*
X002018Y009940D02*
X000630Y009940D01*
X000630Y009782D02*
X015933Y009782D01*
X016034Y009623D02*
X000630Y009623D01*
X000630Y009465D02*
X016193Y009465D01*
X016103Y009306D02*
X000630Y009306D01*
X000630Y009148D02*
X015945Y009148D01*
X015933Y008989D02*
X000630Y008989D01*
X000630Y008831D02*
X015933Y008831D01*
X015985Y008672D02*
X000630Y008672D01*
X000630Y008514D02*
X016144Y008514D01*
X016224Y008427D02*
X015933Y008136D01*
X015933Y007724D01*
X016224Y007433D01*
X016636Y007433D01*
X016927Y007724D01*
X016927Y008136D01*
X016636Y008427D01*
X016224Y008427D01*
X016152Y008355D02*
X000630Y008355D01*
X000630Y008197D02*
X015994Y008197D01*
X015933Y008038D02*
X000630Y008038D01*
X000630Y007880D02*
X015933Y007880D01*
X015936Y007721D02*
X000630Y007721D01*
X000630Y007563D02*
X016095Y007563D01*
X016224Y007427D02*
X015933Y007136D01*
X015933Y006724D01*
X016224Y006433D01*
X016636Y006433D01*
X016927Y006724D01*
X016927Y007136D01*
X016636Y007427D01*
X016224Y007427D01*
X016201Y007404D02*
X003159Y007404D01*
X003317Y007246D02*
X016043Y007246D01*
X015933Y007087D02*
X003427Y007087D01*
X003427Y006929D02*
X015933Y006929D01*
X015933Y006770D02*
X003427Y006770D01*
X003314Y006612D02*
X016046Y006612D01*
X016204Y006453D02*
X003156Y006453D01*
X003268Y006295D02*
X016092Y006295D01*
X016224Y006427D02*
X015933Y006136D01*
X015933Y005724D01*
X016224Y005433D01*
X016636Y005433D01*
X016927Y005724D01*
X016927Y006136D01*
X016636Y006427D01*
X016224Y006427D01*
X015933Y006136D02*
X003427Y006136D01*
X003427Y005978D02*
X015933Y005978D01*
X015933Y005819D02*
X003427Y005819D01*
X003363Y005661D02*
X015997Y005661D01*
X016155Y005502D02*
X003205Y005502D01*
X003219Y005344D02*
X016141Y005344D01*
X016224Y005427D02*
X015933Y005136D01*
X015933Y004724D01*
X016224Y004433D01*
X016636Y004433D01*
X016927Y004724D01*
X016927Y005136D01*
X016636Y005427D01*
X016224Y005427D01*
X015982Y005185D02*
X003378Y005185D01*
X003427Y005027D02*
X015933Y005027D01*
X015933Y004868D02*
X003427Y004868D01*
X003412Y004710D02*
X015948Y004710D01*
X016106Y004551D02*
X003254Y004551D01*
X003170Y004393D02*
X016190Y004393D01*
X016031Y004234D02*
X003329Y004234D01*
X003427Y004076D02*
X015933Y004076D01*
X015933Y003917D02*
X003427Y003917D01*
X003427Y003759D02*
X015933Y003759D01*
X016057Y003600D02*
X003303Y003600D01*
X001609Y003283D02*
X000630Y003283D01*
X000630Y003125D02*
X001453Y003125D01*
X001453Y002966D02*
X000630Y002966D01*
X000630Y002808D02*
X001453Y002808D01*
X001537Y002649D02*
X000630Y002649D01*
X000630Y010099D02*
X001762Y010099D01*
X001667Y010257D02*
X000630Y010257D01*
X000630Y010416D02*
X001636Y010416D01*
X001655Y010574D02*
X000630Y010574D01*
X000630Y010733D02*
X001733Y010733D01*
X001948Y010891D02*
X000630Y010891D01*
X000630Y011050D02*
X001846Y011050D01*
X001823Y011066D02*
X001883Y011022D01*
X001950Y010988D01*
X002021Y010965D01*
X002096Y010953D01*
X002412Y010953D01*
X002412Y011412D01*
X002448Y011412D01*
X002448Y010953D01*
X002764Y010953D01*
X002839Y010965D01*
X002910Y010988D01*
X002977Y011022D01*
X003037Y011066D01*
X003091Y011119D01*
X003135Y011180D01*
X003169Y011247D01*
X003192Y011318D01*
X003204Y011392D01*
X003204Y011412D01*
X002448Y011412D01*
X002448Y011448D01*
X002412Y011448D01*
X002412Y011412D01*
X001656Y011412D01*
X001656Y011392D01*
X001668Y011318D01*
X001691Y011247D01*
X001725Y011180D01*
X001769Y011119D01*
X001823Y011066D01*
X001711Y011208D02*
X000630Y011208D01*
X000630Y011367D02*
X001660Y011367D01*
X001656Y011448D02*
X002412Y011448D01*
X002412Y011907D01*
X002096Y011907D01*
X002021Y011895D01*
X001950Y011872D01*
X001883Y011838D01*
X001823Y011794D01*
X001769Y011741D01*
X001725Y011680D01*
X001691Y011613D01*
X001668Y011542D01*
X001656Y011468D01*
X001656Y011448D01*
X001665Y011525D02*
X000630Y011525D01*
X000630Y011684D02*
X001728Y011684D01*
X001891Y011842D02*
X000798Y011842D01*
X000993Y012001D02*
X018367Y012001D01*
X018323Y012159D02*
X001037Y012159D01*
X001010Y012318D02*
X018350Y012318D01*
X018562Y011842D02*
X014970Y011842D01*
X015125Y011684D02*
X018900Y011684D01*
X018900Y011842D02*
X018798Y011842D01*
X018900Y011208D02*
X015138Y011208D01*
X015008Y011050D02*
X018900Y011050D01*
X018900Y010891D02*
X014851Y010891D01*
X015086Y010733D02*
X018900Y010733D01*
X017448Y009306D02*
X017412Y009306D01*
X017412Y009148D02*
X017448Y009148D01*
X017448Y008989D02*
X017412Y008989D01*
X017412Y008831D02*
X017448Y008831D01*
X017448Y008672D02*
X017412Y008672D01*
X017412Y008514D02*
X017448Y008514D01*
X017412Y008407D02*
X017232Y008407D01*
X016953Y008128D01*
X016953Y007948D01*
X017412Y007948D01*
X017412Y008407D01*
X017412Y008355D02*
X017448Y008355D01*
X017448Y008197D02*
X017412Y008197D01*
X017412Y008038D02*
X017448Y008038D01*
X017448Y007880D02*
X017412Y007880D01*
X017412Y007721D02*
X017448Y007721D01*
X017448Y007563D02*
X017412Y007563D01*
X017412Y007407D02*
X017232Y007407D01*
X016953Y007128D01*
X016953Y006948D01*
X017412Y006948D01*
X017412Y007407D01*
X017412Y007404D02*
X017448Y007404D01*
X017448Y007246D02*
X017412Y007246D01*
X017412Y007087D02*
X017448Y007087D01*
X017412Y006929D02*
X016927Y006929D01*
X016927Y007087D02*
X016953Y007087D01*
X017071Y007246D02*
X016817Y007246D01*
X016659Y007404D02*
X017230Y007404D01*
X017123Y007563D02*
X016765Y007563D01*
X016924Y007721D02*
X016965Y007721D01*
X016953Y007880D02*
X016927Y007880D01*
X016927Y008038D02*
X016953Y008038D01*
X017022Y008197D02*
X016866Y008197D01*
X016708Y008355D02*
X017181Y008355D01*
X017172Y008514D02*
X016716Y008514D01*
X016875Y008672D02*
X017014Y008672D01*
X016953Y008831D02*
X016927Y008831D01*
X016927Y008989D02*
X016953Y008989D01*
X016973Y009148D02*
X016915Y009148D01*
X016927Y006770D02*
X016953Y006770D01*
X017074Y006612D02*
X016814Y006612D01*
X016656Y006453D02*
X018900Y006453D01*
X018900Y006295D02*
X017740Y006295D01*
X017898Y006136D02*
X018900Y006136D01*
X018900Y005978D02*
X017907Y005978D01*
X017907Y005819D02*
X018900Y005819D01*
X018900Y005661D02*
X017835Y005661D01*
X017676Y005502D02*
X018900Y005502D01*
X018900Y005344D02*
X017691Y005344D01*
X017849Y005185D02*
X018900Y005185D01*
X018900Y005027D02*
X017907Y005027D01*
X017907Y004868D02*
X018900Y004868D01*
X018900Y004710D02*
X017884Y004710D01*
X017448Y004234D02*
X017412Y004234D01*
X017412Y004076D02*
X017448Y004076D01*
X017412Y003917D02*
X016927Y003917D01*
X016927Y003759D02*
X016953Y003759D01*
X017086Y003600D02*
X016803Y003600D01*
X016644Y003442D02*
X018900Y003442D01*
X018900Y003600D02*
X017774Y003600D01*
X017751Y003283D02*
X018900Y003283D01*
X018900Y003125D02*
X017907Y003125D01*
X017907Y002966D02*
X018900Y002966D01*
X018900Y002808D02*
X017907Y002808D01*
X017823Y002649D02*
X018900Y002649D01*
X018900Y002491D02*
X017665Y002491D01*
X017037Y002649D02*
X016852Y002649D01*
X016927Y002808D02*
X016953Y002808D01*
X016953Y002966D02*
X016927Y002966D01*
X016927Y003125D02*
X016953Y003125D01*
X017109Y003283D02*
X016780Y003283D01*
X016927Y004076D02*
X016953Y004076D01*
X017060Y004234D02*
X016829Y004234D01*
X016670Y004393D02*
X017218Y004393D01*
X017135Y004551D02*
X016754Y004551D01*
X016912Y004710D02*
X016976Y004710D01*
X016953Y004868D02*
X016927Y004868D01*
X016927Y005027D02*
X016953Y005027D01*
X017011Y005185D02*
X016878Y005185D01*
X016719Y005344D02*
X017169Y005344D01*
X017184Y005502D02*
X016705Y005502D01*
X016863Y005661D02*
X017025Y005661D01*
X016953Y005819D02*
X016927Y005819D01*
X016927Y005978D02*
X016953Y005978D01*
X016962Y006136D02*
X016927Y006136D01*
X016768Y006295D02*
X017120Y006295D01*
X017786Y006612D02*
X018900Y006612D01*
X018900Y006770D02*
X017907Y006770D01*
X013890Y011842D02*
X002969Y011842D01*
X002977Y011838D02*
X002910Y011872D01*
X002839Y011895D01*
X002764Y011907D01*
X002448Y011907D01*
X002448Y011448D01*
X003204Y011448D01*
X003204Y011468D01*
X003192Y011542D01*
X003169Y011613D01*
X003135Y011680D01*
X003091Y011741D01*
X003037Y011794D01*
X002977Y011838D01*
X003132Y011684D02*
X005310Y011684D01*
X005129Y011525D02*
X003195Y011525D01*
X003200Y011367D02*
X004971Y011367D01*
X004812Y011208D02*
X003149Y011208D01*
X003014Y011050D02*
X004654Y011050D01*
X004495Y010891D02*
X002912Y010891D01*
X003127Y010733D02*
X004337Y010733D01*
X004430Y010430D02*
X004805Y010805D01*
X002448Y011050D02*
X002412Y011050D01*
X002412Y011208D02*
X002448Y011208D01*
X002448Y011367D02*
X002412Y011367D01*
X002412Y011525D02*
X002448Y011525D01*
X002448Y011684D02*
X002412Y011684D01*
X002412Y011842D02*
X002448Y011842D01*
D12*
X002930Y006930D03*
X002930Y005930D03*
X002930Y004930D03*
X002930Y003930D03*
X002930Y002930D03*
X001930Y002930D03*
X001930Y003930D03*
X001930Y004930D03*
X001930Y005930D03*
X001930Y006930D03*
X016430Y006930D03*
X017430Y006930D03*
X017430Y005930D03*
X016430Y005930D03*
X016430Y004930D03*
X017430Y004930D03*
X017430Y003930D03*
X016430Y003930D03*
X016430Y002930D03*
X017430Y002930D03*
X017430Y007930D03*
X016430Y007930D03*
X016430Y008930D03*
X017430Y008930D03*
X017430Y009930D03*
X016430Y009930D03*
D13*
X014710Y010430D02*
X014150Y010430D01*
X014150Y011430D02*
X014710Y011430D01*
D14*
X002727Y011430D02*
X002133Y011430D01*
X002133Y010430D02*
X002727Y010430D01*
M02*
