G75*
G70*
%OFA0B0*%
%FSLAX24Y24*%
%IPPOS*%
%LPD*%
%AMOC8*
5,1,8,0,0,1.08239X$1,22.5*
%
%ADD10C,0.0000*%
%ADD11C,0.0030*%
%ADD12C,0.0160*%
%ADD13C,0.0002*%
%ADD14C,0.0060*%
%ADD15C,0.0080*%
%ADD16C,0.0040*%
%ADD17R,0.0079X0.0079*%
%ADD18C,0.0050*%
%ADD19C,0.0100*%
D10*
X000430Y000430D02*
X000430Y031926D01*
X039800Y031926D01*
X039800Y000430D01*
X000430Y000430D01*
X000523Y000680D02*
X000525Y000705D01*
X000531Y000729D01*
X000540Y000751D01*
X000553Y000772D01*
X000569Y000791D01*
X000588Y000807D01*
X000609Y000820D01*
X000631Y000829D01*
X000655Y000835D01*
X000680Y000837D01*
X000705Y000835D01*
X000729Y000829D01*
X000751Y000820D01*
X000772Y000807D01*
X000791Y000791D01*
X000807Y000772D01*
X000820Y000751D01*
X000829Y000729D01*
X000835Y000705D01*
X000837Y000680D01*
X000835Y000655D01*
X000829Y000631D01*
X000820Y000609D01*
X000807Y000588D01*
X000791Y000569D01*
X000772Y000553D01*
X000751Y000540D01*
X000729Y000531D01*
X000705Y000525D01*
X000680Y000523D01*
X000655Y000525D01*
X000631Y000531D01*
X000609Y000540D01*
X000588Y000553D01*
X000569Y000569D01*
X000553Y000588D01*
X000540Y000609D01*
X000531Y000631D01*
X000525Y000655D01*
X000523Y000680D01*
X000523Y012180D02*
X000525Y012205D01*
X000531Y012229D01*
X000540Y012251D01*
X000553Y012272D01*
X000569Y012291D01*
X000588Y012307D01*
X000609Y012320D01*
X000631Y012329D01*
X000655Y012335D01*
X000680Y012337D01*
X000705Y012335D01*
X000729Y012329D01*
X000751Y012320D01*
X000772Y012307D01*
X000791Y012291D01*
X000807Y012272D01*
X000820Y012251D01*
X000829Y012229D01*
X000835Y012205D01*
X000837Y012180D01*
X000835Y012155D01*
X000829Y012131D01*
X000820Y012109D01*
X000807Y012088D01*
X000791Y012069D01*
X000772Y012053D01*
X000751Y012040D01*
X000729Y012031D01*
X000705Y012025D01*
X000680Y012023D01*
X000655Y012025D01*
X000631Y012031D01*
X000609Y012040D01*
X000588Y012053D01*
X000569Y012069D01*
X000553Y012088D01*
X000540Y012109D01*
X000531Y012131D01*
X000525Y012155D01*
X000523Y012180D01*
X018523Y012180D02*
X018525Y012205D01*
X018531Y012229D01*
X018540Y012251D01*
X018553Y012272D01*
X018569Y012291D01*
X018588Y012307D01*
X018609Y012320D01*
X018631Y012329D01*
X018655Y012335D01*
X018680Y012337D01*
X018705Y012335D01*
X018729Y012329D01*
X018751Y012320D01*
X018772Y012307D01*
X018791Y012291D01*
X018807Y012272D01*
X018820Y012251D01*
X018829Y012229D01*
X018835Y012205D01*
X018837Y012180D01*
X018835Y012155D01*
X018829Y012131D01*
X018820Y012109D01*
X018807Y012088D01*
X018791Y012069D01*
X018772Y012053D01*
X018751Y012040D01*
X018729Y012031D01*
X018705Y012025D01*
X018680Y012023D01*
X018655Y012025D01*
X018631Y012031D01*
X018609Y012040D01*
X018588Y012053D01*
X018569Y012069D01*
X018553Y012088D01*
X018540Y012109D01*
X018531Y012131D01*
X018525Y012155D01*
X018523Y012180D01*
X018523Y000680D02*
X018525Y000705D01*
X018531Y000729D01*
X018540Y000751D01*
X018553Y000772D01*
X018569Y000791D01*
X018588Y000807D01*
X018609Y000820D01*
X018631Y000829D01*
X018655Y000835D01*
X018680Y000837D01*
X018705Y000835D01*
X018729Y000829D01*
X018751Y000820D01*
X018772Y000807D01*
X018791Y000791D01*
X018807Y000772D01*
X018820Y000751D01*
X018829Y000729D01*
X018835Y000705D01*
X018837Y000680D01*
X018835Y000655D01*
X018829Y000631D01*
X018820Y000609D01*
X018807Y000588D01*
X018791Y000569D01*
X018772Y000553D01*
X018751Y000540D01*
X018729Y000531D01*
X018705Y000525D01*
X018680Y000523D01*
X018655Y000525D01*
X018631Y000531D01*
X018609Y000540D01*
X018588Y000553D01*
X018569Y000569D01*
X018553Y000588D01*
X018540Y000609D01*
X018531Y000631D01*
X018525Y000655D01*
X018523Y000680D01*
D11*
X013888Y002493D02*
X013888Y002542D01*
X013840Y002590D01*
X013695Y002590D01*
X013695Y002493D01*
X013743Y002445D01*
X013840Y002445D01*
X013888Y002493D01*
X013792Y002687D02*
X013695Y002590D01*
X013792Y002687D02*
X013888Y002735D01*
X013840Y003445D02*
X013743Y003445D01*
X013695Y003493D01*
X013695Y003590D02*
X013792Y003638D01*
X013840Y003638D01*
X013888Y003590D01*
X013888Y003493D01*
X013840Y003445D01*
X013695Y003590D02*
X013695Y003735D01*
X013888Y003735D01*
X013840Y004445D02*
X013840Y004735D01*
X013695Y004590D01*
X013888Y004590D01*
X013840Y005695D02*
X013743Y005695D01*
X013695Y005743D01*
X013792Y005840D02*
X013840Y005840D01*
X013888Y005792D01*
X013888Y005743D01*
X013840Y005695D01*
X013840Y005840D02*
X013888Y005888D01*
X013888Y005937D01*
X013840Y005985D01*
X013743Y005985D01*
X013695Y005937D01*
X013695Y006695D02*
X013888Y006888D01*
X013888Y006937D01*
X013840Y006985D01*
X013743Y006985D01*
X013695Y006937D01*
X013695Y006695D02*
X013888Y006695D01*
X013888Y007445D02*
X013695Y007445D01*
X013792Y007445D02*
X013792Y007735D01*
X013695Y007638D01*
X013743Y008445D02*
X013695Y008493D01*
X013888Y008687D01*
X013888Y008493D01*
X013840Y008445D01*
X013743Y008445D01*
X013695Y008493D02*
X013695Y008687D01*
X013743Y008735D01*
X013840Y008735D01*
X013888Y008687D01*
X012165Y009445D02*
X012165Y009638D01*
X012165Y009542D02*
X011875Y009542D01*
X011972Y009445D01*
X011875Y009740D02*
X012068Y009740D01*
X012165Y009836D01*
X012068Y009933D01*
X011875Y009933D01*
X011923Y010034D02*
X011972Y010034D01*
X012020Y010083D01*
X012020Y010179D01*
X012068Y010228D01*
X012117Y010228D01*
X012165Y010179D01*
X012165Y010083D01*
X012117Y010034D01*
X012068Y010034D01*
X012020Y010083D01*
X012020Y010179D02*
X011972Y010228D01*
X011923Y010228D01*
X011875Y010179D01*
X011875Y010083D01*
X011923Y010034D01*
X012145Y011795D02*
X012145Y011980D01*
X012206Y012042D01*
X012330Y012042D01*
X012392Y011980D01*
X012392Y011795D01*
X012515Y011795D02*
X012145Y011795D01*
X012392Y011918D02*
X012515Y012042D01*
X012453Y012163D02*
X012515Y012225D01*
X012515Y012348D01*
X012453Y012410D01*
X012330Y012410D01*
X012268Y012348D01*
X012268Y012287D01*
X012330Y012163D01*
X012145Y012163D01*
X012145Y012410D01*
X010515Y012348D02*
X010145Y012348D01*
X010330Y012163D01*
X010330Y012410D01*
X010330Y012042D02*
X010392Y011980D01*
X010392Y011795D01*
X010515Y011795D02*
X010145Y011795D01*
X010145Y011980D01*
X010206Y012042D01*
X010330Y012042D01*
X010392Y011918D02*
X010515Y012042D01*
X008985Y012001D02*
X008937Y012049D01*
X008743Y012049D01*
X008695Y012001D01*
X008695Y011856D01*
X008985Y011856D01*
X008985Y012001D01*
X008985Y012150D02*
X008985Y012344D01*
X008985Y012247D02*
X008695Y012247D01*
X008792Y012150D01*
X008695Y011755D02*
X008695Y011561D01*
X008985Y011561D01*
X008985Y011755D01*
X008840Y011658D02*
X008840Y011561D01*
X008985Y011460D02*
X008985Y011266D01*
X008695Y011266D01*
X007465Y011608D02*
X007095Y011608D01*
X007095Y011794D01*
X007156Y011855D01*
X007280Y011855D01*
X007342Y011794D01*
X007342Y011608D01*
X007342Y011732D02*
X007465Y011855D01*
X007403Y011977D02*
X007465Y012038D01*
X007465Y012162D01*
X007403Y012224D01*
X007342Y012224D01*
X007280Y012162D01*
X007280Y012100D01*
X007280Y012162D02*
X007218Y012224D01*
X007156Y012224D01*
X007095Y012162D01*
X007095Y012038D01*
X007156Y011977D01*
X006124Y011957D02*
X006124Y012018D01*
X006062Y012080D01*
X005877Y012080D01*
X005877Y011957D01*
X005938Y011895D01*
X006062Y011895D01*
X006124Y011957D01*
X005877Y012080D02*
X006000Y012204D01*
X006124Y012265D01*
X005755Y012204D02*
X005694Y012265D01*
X005570Y012265D01*
X005508Y012204D01*
X005508Y011957D01*
X005570Y011895D01*
X005694Y011895D01*
X005755Y011957D01*
X004679Y012007D02*
X004679Y012254D01*
X004617Y012315D01*
X004432Y012315D01*
X004432Y011945D01*
X004617Y011945D01*
X004679Y012007D01*
X004310Y011945D02*
X004310Y012315D01*
X004063Y012315D02*
X004310Y011945D01*
X004063Y011945D02*
X004063Y012315D01*
X003942Y012254D02*
X003880Y012315D01*
X003757Y012315D01*
X003695Y012254D01*
X003695Y012007D01*
X003757Y011945D01*
X003880Y011945D01*
X003942Y012007D01*
X003942Y012130D01*
X003818Y012130D01*
X004295Y010056D02*
X004665Y010056D01*
X004295Y009809D01*
X004665Y009809D01*
X004665Y009687D02*
X004665Y009563D01*
X004665Y009625D02*
X004295Y009625D01*
X004295Y009563D02*
X004295Y009687D01*
X004295Y009442D02*
X004542Y009442D01*
X004665Y009318D01*
X004542Y009195D01*
X004295Y009195D01*
X008475Y007035D02*
X008523Y007083D01*
X008572Y007083D01*
X008620Y007035D01*
X008668Y007083D01*
X008717Y007083D01*
X008765Y007035D01*
X008765Y006938D01*
X008717Y006890D01*
X008717Y006788D02*
X008765Y006740D01*
X008765Y006643D01*
X008717Y006595D01*
X008523Y006595D01*
X008475Y006643D01*
X008475Y006740D01*
X008523Y006788D01*
X008523Y006890D02*
X008475Y006938D01*
X008475Y007035D01*
X008620Y007035D02*
X008620Y006986D01*
X009975Y006890D02*
X010120Y006890D01*
X010072Y006986D01*
X010072Y007035D01*
X010120Y007083D01*
X010217Y007083D01*
X010265Y007035D01*
X010265Y006938D01*
X010217Y006890D01*
X010217Y006788D02*
X010265Y006740D01*
X010265Y006643D01*
X010217Y006595D01*
X010023Y006595D01*
X009975Y006643D01*
X009975Y006740D01*
X010023Y006788D01*
X009975Y006890D02*
X009975Y007083D01*
X005638Y005187D02*
X005638Y004993D01*
X005590Y004945D01*
X005493Y004945D01*
X005445Y004993D01*
X005638Y005187D01*
X005590Y005235D01*
X005493Y005235D01*
X005445Y005187D01*
X005445Y004993D01*
X005542Y004735D02*
X005542Y004445D01*
X005638Y004445D02*
X005445Y004445D01*
X005445Y004638D02*
X005542Y004735D01*
X005590Y004235D02*
X005493Y004235D01*
X005445Y004187D01*
X005590Y004235D02*
X005638Y004187D01*
X005638Y004138D01*
X005445Y003945D01*
X005638Y003945D01*
X005590Y003735D02*
X005493Y003735D01*
X005445Y003687D01*
X005542Y003590D02*
X005590Y003590D01*
X005638Y003542D01*
X005638Y003493D01*
X005590Y003445D01*
X005493Y003445D01*
X005445Y003493D01*
X005590Y003590D02*
X005638Y003638D01*
X005638Y003687D01*
X005590Y003735D01*
X005590Y003235D02*
X005445Y003090D01*
X005638Y003090D01*
X005590Y002945D02*
X005590Y003235D01*
X005638Y002735D02*
X005445Y002735D01*
X005445Y002590D01*
X005542Y002638D01*
X005590Y002638D01*
X005638Y002590D01*
X005638Y002493D01*
X005590Y002445D01*
X005493Y002445D01*
X005445Y002493D01*
X005542Y002187D02*
X005445Y002090D01*
X005590Y002090D01*
X005638Y002042D01*
X005638Y001993D01*
X005590Y001945D01*
X005493Y001945D01*
X005445Y001993D01*
X005445Y002090D01*
X005542Y002187D02*
X005638Y002235D01*
X005638Y001735D02*
X005445Y001735D01*
X005638Y001735D02*
X005638Y001687D01*
X005445Y001493D01*
X005445Y001445D01*
X012695Y001695D02*
X012695Y001743D01*
X012888Y001937D01*
X012888Y001985D01*
X012695Y001985D01*
D12*
X019180Y000180D02*
X000180Y000180D01*
X000180Y012680D01*
X019180Y012680D01*
X019180Y000180D01*
X016154Y010332D02*
X016154Y010883D01*
X015733Y010607D01*
X016154Y010332D01*
X001654Y007883D02*
X001654Y007332D01*
X001233Y007607D01*
X001654Y007883D01*
D13*
X000434Y000460D02*
X000426Y000460D01*
X000425Y000450D01*
X000435Y000450D01*
X000425Y000450D01*
X000419Y000447D01*
X000412Y000454D01*
X000406Y000448D01*
X000413Y000441D01*
X000410Y000435D01*
X000422Y000435D01*
X000410Y000435D01*
X000400Y000434D01*
X000400Y000426D01*
X000410Y000425D01*
X000422Y000425D01*
X000410Y000425D01*
X000413Y000419D01*
X000406Y000412D01*
X000412Y000406D01*
X000419Y000413D01*
X000422Y000411D01*
X000422Y000411D01*
X000422Y000411D01*
X000426Y000421D01*
X000412Y000421D01*
X000426Y000421D01*
X000423Y000423D01*
X000421Y000426D01*
X000421Y000430D01*
X000400Y000430D01*
X000421Y000430D01*
X000422Y000434D01*
X000404Y000434D01*
X000422Y000434D01*
X000425Y000438D01*
X000411Y000438D01*
X000425Y000438D01*
X000429Y000439D01*
X000433Y000439D01*
X000437Y000436D01*
X000450Y000436D01*
X000437Y000436D01*
X000439Y000432D01*
X000460Y000432D01*
X000439Y000432D01*
X000439Y000428D01*
X000460Y000428D01*
X000439Y000428D01*
X000437Y000424D01*
X000434Y000421D01*
X000448Y000421D01*
X000434Y000421D01*
X000438Y000411D01*
X000438Y000411D01*
X000438Y000411D01*
X000441Y000413D01*
X000448Y000406D01*
X000454Y000412D01*
X000447Y000419D01*
X000450Y000425D01*
X000438Y000425D01*
X000450Y000425D01*
X000460Y000426D01*
X000460Y000434D01*
X000450Y000435D01*
X000438Y000435D01*
X000450Y000435D01*
X000447Y000441D01*
X000454Y000448D01*
X000448Y000454D01*
X000441Y000447D01*
X000435Y000450D01*
X000434Y000460D01*
X000426Y000460D01*
X000425Y000450D01*
X000419Y000447D01*
X000412Y000454D01*
X000406Y000448D01*
X000413Y000441D01*
X000410Y000435D01*
X000400Y000434D01*
X000400Y000426D01*
X000410Y000425D01*
X000413Y000419D01*
X000406Y000412D01*
X000412Y000406D01*
X000419Y000413D01*
X000422Y000411D01*
X000426Y000421D01*
X000423Y000423D01*
X000421Y000426D01*
X000421Y000430D01*
X000422Y000434D01*
X000425Y000438D01*
X000429Y000439D01*
X000433Y000439D01*
X000437Y000436D01*
X000439Y000432D01*
X000439Y000428D01*
X000437Y000424D01*
X000434Y000421D01*
X000438Y000411D01*
X000441Y000413D01*
X000448Y000406D01*
X000454Y000412D01*
X000447Y000419D01*
X000450Y000425D01*
X000460Y000426D01*
X000460Y000434D01*
X000450Y000435D01*
X000447Y000441D01*
X000454Y000448D01*
X000448Y000454D01*
X000441Y000447D01*
X000435Y000450D01*
X000434Y000460D01*
X000434Y000459D02*
X000426Y000459D01*
X000434Y000459D01*
X000434Y000458D02*
X000426Y000458D01*
X000434Y000458D01*
X000434Y000457D02*
X000426Y000457D01*
X000434Y000457D01*
X000434Y000456D02*
X000426Y000456D01*
X000434Y000456D01*
X000434Y000455D02*
X000426Y000455D01*
X000434Y000455D01*
X000434Y000454D02*
X000426Y000454D01*
X000434Y000454D01*
X000434Y000453D02*
X000426Y000453D01*
X000434Y000453D01*
X000434Y000452D02*
X000426Y000452D01*
X000434Y000452D01*
X000435Y000451D02*
X000425Y000451D01*
X000435Y000451D01*
X000437Y000449D02*
X000423Y000449D01*
X000437Y000449D01*
X000440Y000448D02*
X000420Y000448D01*
X000440Y000448D01*
X000442Y000448D02*
X000453Y000448D01*
X000442Y000448D01*
X000443Y000449D02*
X000453Y000449D01*
X000443Y000449D01*
X000444Y000450D02*
X000452Y000450D01*
X000444Y000450D01*
X000445Y000451D02*
X000451Y000451D01*
X000445Y000451D01*
X000446Y000452D02*
X000450Y000452D01*
X000446Y000452D01*
X000448Y000453D02*
X000449Y000453D01*
X000448Y000453D01*
X000452Y000447D02*
X000408Y000447D01*
X000452Y000447D01*
X000452Y000446D02*
X000408Y000446D01*
X000452Y000446D01*
X000451Y000445D02*
X000409Y000445D01*
X000451Y000445D01*
X000450Y000444D02*
X000410Y000444D01*
X000450Y000444D01*
X000449Y000443D02*
X000411Y000443D01*
X000449Y000443D01*
X000448Y000442D02*
X000412Y000442D01*
X000448Y000442D01*
X000448Y000441D02*
X000412Y000441D01*
X000448Y000441D01*
X000448Y000440D02*
X000412Y000440D01*
X000448Y000440D01*
X000448Y000439D02*
X000431Y000439D01*
X000448Y000439D01*
X000449Y000438D02*
X000434Y000438D01*
X000449Y000438D01*
X000449Y000437D02*
X000436Y000437D01*
X000449Y000437D01*
X000456Y000434D02*
X000438Y000434D01*
X000456Y000434D01*
X000460Y000433D02*
X000439Y000433D01*
X000460Y000433D01*
X000460Y000431D02*
X000439Y000431D01*
X000460Y000431D01*
X000460Y000430D02*
X000439Y000430D01*
X000460Y000430D01*
X000460Y000429D02*
X000439Y000429D01*
X000460Y000429D01*
X000460Y000427D02*
X000439Y000427D01*
X000460Y000427D01*
X000456Y000426D02*
X000438Y000426D01*
X000456Y000426D01*
X000450Y000424D02*
X000437Y000424D01*
X000450Y000424D01*
X000449Y000423D02*
X000436Y000423D01*
X000449Y000423D01*
X000449Y000422D02*
X000434Y000422D01*
X000449Y000422D01*
X000448Y000420D02*
X000434Y000420D01*
X000448Y000420D01*
X000448Y000419D02*
X000435Y000419D01*
X000448Y000419D01*
X000448Y000418D02*
X000435Y000418D01*
X000448Y000418D01*
X000449Y000417D02*
X000435Y000417D01*
X000449Y000417D01*
X000450Y000416D02*
X000436Y000416D01*
X000450Y000416D01*
X000451Y000415D02*
X000436Y000415D01*
X000451Y000415D01*
X000452Y000414D02*
X000437Y000414D01*
X000452Y000414D01*
X000452Y000413D02*
X000437Y000413D01*
X000452Y000413D01*
X000453Y000412D02*
X000442Y000412D01*
X000453Y000412D01*
X000453Y000411D02*
X000443Y000411D01*
X000453Y000411D01*
X000452Y000410D02*
X000444Y000410D01*
X000452Y000410D01*
X000451Y000409D02*
X000445Y000409D01*
X000451Y000409D01*
X000450Y000408D02*
X000446Y000408D01*
X000450Y000408D01*
X000449Y000407D02*
X000448Y000407D01*
X000449Y000407D01*
X000440Y000412D02*
X000437Y000412D01*
X000440Y000412D01*
X000425Y000418D02*
X000412Y000418D01*
X000425Y000418D01*
X000425Y000417D02*
X000411Y000417D01*
X000425Y000417D01*
X000424Y000416D02*
X000410Y000416D01*
X000424Y000416D01*
X000424Y000415D02*
X000409Y000415D01*
X000424Y000415D01*
X000423Y000414D02*
X000408Y000414D01*
X000423Y000414D01*
X000423Y000413D02*
X000408Y000413D01*
X000423Y000413D01*
X000423Y000412D02*
X000420Y000412D01*
X000423Y000412D01*
X000418Y000412D02*
X000407Y000412D01*
X000418Y000412D01*
X000417Y000411D02*
X000407Y000411D01*
X000417Y000411D01*
X000416Y000410D02*
X000408Y000410D01*
X000416Y000410D01*
X000415Y000409D02*
X000409Y000409D01*
X000415Y000409D01*
X000414Y000408D02*
X000410Y000408D01*
X000414Y000408D01*
X000412Y000407D02*
X000411Y000407D01*
X000412Y000407D01*
X000412Y000419D02*
X000425Y000419D01*
X000412Y000419D01*
X000412Y000420D02*
X000426Y000420D01*
X000412Y000420D01*
X000411Y000422D02*
X000425Y000422D01*
X000411Y000422D01*
X000411Y000423D02*
X000424Y000423D01*
X000411Y000423D01*
X000410Y000424D02*
X000423Y000424D01*
X000410Y000424D01*
X000404Y000426D02*
X000422Y000426D01*
X000404Y000426D01*
X000400Y000427D02*
X000421Y000427D01*
X000400Y000427D01*
X000400Y000428D02*
X000421Y000428D01*
X000400Y000428D01*
X000400Y000429D02*
X000421Y000429D01*
X000400Y000429D01*
X000400Y000431D02*
X000421Y000431D01*
X000400Y000431D01*
X000400Y000432D02*
X000421Y000432D01*
X000400Y000432D01*
X000400Y000433D02*
X000421Y000433D01*
X000400Y000433D01*
X000410Y000436D02*
X000423Y000436D01*
X000410Y000436D01*
X000411Y000437D02*
X000424Y000437D01*
X000411Y000437D01*
X000412Y000439D02*
X000428Y000439D01*
X000412Y000439D01*
X000407Y000448D02*
X000418Y000448D01*
X000407Y000448D01*
X000407Y000449D02*
X000417Y000449D01*
X000407Y000449D01*
X000408Y000450D02*
X000416Y000450D01*
X000408Y000450D01*
X000409Y000451D02*
X000415Y000451D01*
X000409Y000451D01*
X000410Y000452D02*
X000414Y000452D01*
X000410Y000452D01*
X000411Y000453D02*
X000412Y000453D01*
X000411Y000453D01*
D14*
X008574Y001904D02*
X010286Y001904D01*
X010286Y004956D01*
X008574Y004956D01*
X008574Y001904D01*
X008743Y004670D02*
X008745Y004691D01*
X008751Y004711D01*
X008760Y004729D01*
X008773Y004745D01*
X008789Y004759D01*
X008807Y004769D01*
X008826Y004776D01*
X008847Y004779D01*
X008868Y004778D01*
X008888Y004773D01*
X008906Y004764D01*
X008923Y004752D01*
X008938Y004737D01*
X008949Y004720D01*
X008957Y004701D01*
X008961Y004680D01*
X008961Y004660D01*
X008957Y004639D01*
X008949Y004620D01*
X008938Y004603D01*
X008923Y004588D01*
X008907Y004576D01*
X008888Y004567D01*
X008868Y004562D01*
X008847Y004561D01*
X008826Y004564D01*
X008807Y004571D01*
X008789Y004581D01*
X008773Y004595D01*
X008760Y004611D01*
X008751Y004629D01*
X008745Y004649D01*
X008743Y004670D01*
X013530Y010030D02*
X013730Y010030D01*
X013830Y010030D01*
X013830Y010180D01*
X013930Y010180D01*
X013930Y010680D01*
X013830Y010680D01*
X013830Y010830D01*
X013830Y011030D01*
X015080Y011030D01*
X014980Y010930D01*
X015080Y010830D01*
X013830Y010830D01*
X013830Y010680D02*
X013730Y010680D01*
X013730Y011180D01*
X013830Y011180D01*
X013830Y011030D01*
X013830Y011180D02*
X013930Y011180D01*
X013930Y011680D01*
X013830Y011680D01*
X013830Y011830D01*
X013730Y011830D01*
X013730Y011680D01*
X013830Y011680D01*
X013830Y011830D02*
X015130Y011830D01*
X015130Y011080D01*
X015080Y011030D01*
X015080Y010830D02*
X015130Y010780D01*
X015130Y010030D01*
X013830Y010030D01*
X013730Y010030D02*
X013730Y010180D01*
X013830Y010180D01*
X013530Y010030D02*
X013530Y010830D01*
X013580Y010830D01*
X013580Y011030D01*
X013530Y011030D01*
X013530Y011830D01*
X013730Y011830D01*
X015130Y011830D02*
X015430Y011830D01*
X015430Y011530D01*
X015480Y011530D01*
X015480Y011330D01*
X015430Y011330D01*
X015430Y011030D01*
X015380Y011030D01*
X015380Y010830D01*
X015430Y010830D01*
X015430Y010530D01*
X015480Y010530D01*
X015480Y010330D01*
X015430Y010330D01*
X015430Y010030D01*
X015130Y010030D01*
D15*
X015631Y011635D02*
X015316Y011950D01*
X015316Y000910D01*
X015631Y001225D01*
X015631Y005682D01*
X015623Y005682D02*
X015343Y005682D01*
X015343Y007178D02*
X015623Y007178D01*
X015631Y007178D02*
X015631Y011635D01*
X018229Y011635D01*
X018544Y011950D01*
X018544Y000910D01*
X018229Y001225D01*
X015631Y001225D01*
X015316Y000910D02*
X018544Y000910D01*
X018229Y001225D02*
X018229Y011635D01*
X018544Y011950D02*
X015316Y011950D01*
X010001Y008745D02*
X010001Y008115D01*
X008859Y008115D02*
X008859Y008745D01*
X004044Y008950D02*
X003729Y008635D01*
X003729Y001225D01*
X004044Y000910D01*
X004044Y008950D01*
X000816Y008950D01*
X001131Y008635D01*
X001131Y005678D01*
X001123Y005678D02*
X000843Y005678D01*
X000843Y004182D02*
X001123Y004182D01*
X001131Y004182D02*
X001131Y001225D01*
X000816Y000910D01*
X004044Y000910D01*
X003729Y001225D02*
X001131Y001225D01*
X000816Y000910D02*
X000816Y008950D01*
X001131Y008635D02*
X003729Y008635D01*
D16*
X005050Y008550D02*
X005050Y008780D01*
X005126Y008857D01*
X005280Y008857D01*
X005357Y008780D01*
X005357Y008550D01*
X005510Y008550D02*
X005050Y008550D01*
X005357Y008703D02*
X005510Y008857D01*
X005510Y009010D02*
X005510Y009317D01*
X005510Y009164D02*
X005050Y009164D01*
X005203Y009010D01*
X006850Y008859D02*
X006850Y008706D01*
X006926Y008629D01*
X007233Y008629D01*
X007310Y008706D01*
X007310Y008859D01*
X007233Y008936D01*
X007310Y009090D02*
X007310Y009397D01*
X007310Y009243D02*
X006850Y009243D01*
X007003Y009090D01*
X006926Y008936D02*
X006850Y008859D01*
X007030Y007367D02*
X007030Y007060D01*
X006800Y007291D01*
X007260Y007291D01*
X007183Y006907D02*
X007260Y006830D01*
X007260Y006677D01*
X007183Y006600D01*
X006876Y006600D01*
X006800Y006677D01*
X006800Y006830D01*
X006876Y006907D01*
X005510Y006857D02*
X005357Y006703D01*
X005357Y006780D02*
X005357Y006550D01*
X005510Y006550D02*
X005050Y006550D01*
X005050Y006780D01*
X005126Y006857D01*
X005280Y006857D01*
X005357Y006780D01*
X005510Y007010D02*
X005203Y007317D01*
X005126Y007317D01*
X005050Y007241D01*
X005050Y007087D01*
X005126Y007010D01*
X005510Y007010D02*
X005510Y007317D01*
X011550Y007677D02*
X011626Y007600D01*
X011933Y007600D01*
X012010Y007677D01*
X012010Y007830D01*
X011933Y007907D01*
X012010Y008060D02*
X011703Y008367D01*
X011626Y008367D01*
X011550Y008291D01*
X011550Y008137D01*
X011626Y008060D01*
X011626Y007907D02*
X011550Y007830D01*
X011550Y007677D01*
X012010Y008060D02*
X012010Y008367D01*
X013600Y008929D02*
X013600Y009159D01*
X013676Y009236D01*
X013830Y009236D01*
X013907Y009159D01*
X013907Y008929D01*
X014060Y008929D02*
X013600Y008929D01*
X013907Y009083D02*
X014060Y009236D01*
X013983Y009390D02*
X013830Y009390D01*
X013830Y009620D01*
X013907Y009697D01*
X013983Y009697D01*
X014060Y009620D01*
X014060Y009466D01*
X013983Y009390D01*
X013830Y009390D02*
X013676Y009543D01*
X013600Y009697D01*
D17*
X009430Y010641D03*
D18*
X014825Y011255D02*
X015052Y011255D01*
X014938Y011255D02*
X014938Y011595D01*
X014825Y011482D01*
D19*
X003680Y011930D02*
X003680Y009930D01*
X002930Y009930D01*
X002930Y011930D01*
X003680Y011930D01*
X002930Y011930D02*
X001180Y011930D01*
X001180Y009930D01*
X002930Y009930D01*
M02*
