%
M48
M72
T01C0.0315
T02C0.0320
T03C0.0360
T04C0.0394
%
T01
X250Y250
X250Y11750
X18250Y11750
X18250Y250
T02
X11000Y10500
X10000Y10500
T03
X2000Y10000
X2000Y11000
T04
X1500Y6500
X2500Y6500
X1500Y5500
X2500Y5500
X1500Y4500
X2500Y4500
X1500Y3500
X2500Y3500
X1500Y2500
X2500Y2500
X16000Y9500
X17000Y9500
X16000Y8500
X17000Y8500
X16000Y7500
X17000Y7500
X16000Y6500
X17000Y6500
X16000Y5500
X17000Y5500
X16000Y4500
X17000Y4500
X16000Y3500
X17000Y3500
X16000Y2500
X17000Y2500
M30
