G75*
G70*
%OFA0B0*%
%FSLAX24Y24*%
%IPPOS*%
%LPD*%
%AMOC8*
5,1,8,0,0,1.08239X$1,22.5*
%
%ADD10C,0.0000*%
%ADD11C,0.0355*%
%ADD12C,0.0160*%
%ADD13OC8,0.0634*%
%ADD14C,0.0600*%
%ADD15OC8,0.0560*%
D10*
X000430Y000430D02*
X000430Y031926D01*
X039800Y031926D01*
X039800Y000430D01*
X000430Y000430D01*
X000523Y000680D02*
X000525Y000705D01*
X000531Y000729D01*
X000540Y000751D01*
X000553Y000772D01*
X000569Y000791D01*
X000588Y000807D01*
X000609Y000820D01*
X000631Y000829D01*
X000655Y000835D01*
X000680Y000837D01*
X000705Y000835D01*
X000729Y000829D01*
X000751Y000820D01*
X000772Y000807D01*
X000791Y000791D01*
X000807Y000772D01*
X000820Y000751D01*
X000829Y000729D01*
X000835Y000705D01*
X000837Y000680D01*
X000835Y000655D01*
X000829Y000631D01*
X000820Y000609D01*
X000807Y000588D01*
X000791Y000569D01*
X000772Y000553D01*
X000751Y000540D01*
X000729Y000531D01*
X000705Y000525D01*
X000680Y000523D01*
X000655Y000525D01*
X000631Y000531D01*
X000609Y000540D01*
X000588Y000553D01*
X000569Y000569D01*
X000553Y000588D01*
X000540Y000609D01*
X000531Y000631D01*
X000525Y000655D01*
X000523Y000680D01*
X000523Y012180D02*
X000525Y012205D01*
X000531Y012229D01*
X000540Y012251D01*
X000553Y012272D01*
X000569Y012291D01*
X000588Y012307D01*
X000609Y012320D01*
X000631Y012329D01*
X000655Y012335D01*
X000680Y012337D01*
X000705Y012335D01*
X000729Y012329D01*
X000751Y012320D01*
X000772Y012307D01*
X000791Y012291D01*
X000807Y012272D01*
X000820Y012251D01*
X000829Y012229D01*
X000835Y012205D01*
X000837Y012180D01*
X000835Y012155D01*
X000829Y012131D01*
X000820Y012109D01*
X000807Y012088D01*
X000791Y012069D01*
X000772Y012053D01*
X000751Y012040D01*
X000729Y012031D01*
X000705Y012025D01*
X000680Y012023D01*
X000655Y012025D01*
X000631Y012031D01*
X000609Y012040D01*
X000588Y012053D01*
X000569Y012069D01*
X000553Y012088D01*
X000540Y012109D01*
X000531Y012131D01*
X000525Y012155D01*
X000523Y012180D01*
X018523Y012180D02*
X018525Y012205D01*
X018531Y012229D01*
X018540Y012251D01*
X018553Y012272D01*
X018569Y012291D01*
X018588Y012307D01*
X018609Y012320D01*
X018631Y012329D01*
X018655Y012335D01*
X018680Y012337D01*
X018705Y012335D01*
X018729Y012329D01*
X018751Y012320D01*
X018772Y012307D01*
X018791Y012291D01*
X018807Y012272D01*
X018820Y012251D01*
X018829Y012229D01*
X018835Y012205D01*
X018837Y012180D01*
X018835Y012155D01*
X018829Y012131D01*
X018820Y012109D01*
X018807Y012088D01*
X018791Y012069D01*
X018772Y012053D01*
X018751Y012040D01*
X018729Y012031D01*
X018705Y012025D01*
X018680Y012023D01*
X018655Y012025D01*
X018631Y012031D01*
X018609Y012040D01*
X018588Y012053D01*
X018569Y012069D01*
X018553Y012088D01*
X018540Y012109D01*
X018531Y012131D01*
X018525Y012155D01*
X018523Y012180D01*
X018523Y000680D02*
X018525Y000705D01*
X018531Y000729D01*
X018540Y000751D01*
X018553Y000772D01*
X018569Y000791D01*
X018588Y000807D01*
X018609Y000820D01*
X018631Y000829D01*
X018655Y000835D01*
X018680Y000837D01*
X018705Y000835D01*
X018729Y000829D01*
X018751Y000820D01*
X018772Y000807D01*
X018791Y000791D01*
X018807Y000772D01*
X018820Y000751D01*
X018829Y000729D01*
X018835Y000705D01*
X018837Y000680D01*
X018835Y000655D01*
X018829Y000631D01*
X018820Y000609D01*
X018807Y000588D01*
X018791Y000569D01*
X018772Y000553D01*
X018751Y000540D01*
X018729Y000531D01*
X018705Y000525D01*
X018680Y000523D01*
X018655Y000525D01*
X018631Y000531D01*
X018609Y000540D01*
X018588Y000553D01*
X018569Y000569D01*
X018553Y000588D01*
X018540Y000609D01*
X018531Y000631D01*
X018525Y000655D01*
X018523Y000680D01*
D11*
X018680Y000680D03*
X018680Y012180D03*
X000680Y012180D03*
X000680Y000680D03*
D12*
X000180Y000180D02*
X019180Y000180D01*
X019180Y012680D01*
X000180Y012680D01*
X000180Y000180D01*
D13*
X001930Y002930D03*
X001930Y003930D03*
X001930Y004930D03*
X001930Y005930D03*
X001930Y006930D03*
X002930Y006930D03*
X002930Y005930D03*
X002930Y004930D03*
X002930Y003930D03*
X002930Y002930D03*
X016430Y002930D03*
X017430Y002930D03*
X017430Y003930D03*
X016430Y003930D03*
X016430Y004930D03*
X017430Y004930D03*
X017430Y005930D03*
X016430Y005930D03*
X016430Y006930D03*
X017430Y006930D03*
X017430Y007930D03*
X016430Y007930D03*
X016430Y008930D03*
X017430Y008930D03*
X017430Y009930D03*
X016430Y009930D03*
D14*
X002710Y010430D02*
X002150Y010430D01*
X002150Y011430D02*
X002710Y011430D01*
D15*
X010430Y010930D03*
X011430Y010930D03*
M02*
